<?xml version="1.0" standalone="no"?>
<!DOCTYPE svg PUBLIC "-//W3C//DTD SVG 20010904//EN"
 "http://www.w3.org/TR/2001/REC-SVG-20010904/DTD/svg10.dtd">
<svg version="1.0" xmlns="http://www.w3.org/2000/svg"
 width="600.000000pt" height="268.000000pt" viewBox="0 0 600.000000 268.000000"
 preserveAspectRatio="xMidYMid meet">

<g transform="translate(0.000000,268.000000) scale(0.100000,-0.100000)"
fill="#000000" stroke="none">
<path d="M1780 2664 c0 -4 45 -129 99 -278 165 -450 370 -1007 397 -1078 l26
-68 330 0 c310 0 330 1 325 18 -3 9 -76 208 -162 442 -86 234 -201 547 -255
695 l-98 270 -331 3 c-182 1 -331 -1 -331 -4z"/>
<path d="M2500 2663 c0 -5 39 -111 86 -238 47 -126 157 -426 245 -665 88 -239
167 -454 176 -477 l16 -43 328 0 c202 0 329 4 329 10 0 5 -4 19 -10 32 -5 13
-34 91 -64 173 -30 83 -115 314 -189 515 -74 201 -162 439 -195 530 l-60 165
-331 3 c-182 1 -331 -1 -331 -5z"/>
<path d="M3220 2663 c0 -3 28 -81 61 -172 75 -204 105 -285 209 -571 45 -124
111 -304 146 -400 35 -96 64 -181 64 -187 0 -7 5 -13 10 -13 6 0 10 1 10 3 0
4 41 120 78 222 16 44 83 224 147 400 65 176 124 336 131 355 7 19 40 109 73
199 34 90 61 166 61 167 0 2 -223 4 -495 4 -272 0 -495 -3 -495 -7z"/>
<path d="M556 858 c-9 -12 -16 -30 -16 -40 0 -10 -4 -18 -9 -18 -8 0 -20 -30
-77 -180 -13 -36 -36 -88 -49 -116 -14 -28 -25 -58 -25 -67 0 -9 -4 -18 -9
-21 -4 -3 -11 -19 -14 -35 -6 -28 -30 -46 -48 -35 -5 3 -9 18 -9 33 0 16 -14
68 -31 117 -17 49 -33 96 -35 104 -5 13 -6 13 -14 0 -8 -12 -10 -10 -10 8 0
13 4 21 9 18 15 -9 -35 169 -60 215 -8 16 -21 19 -75 19 -57 0 -65 -2 -60 -17
2 -10 7 -33 11 -51 4 -19 11 -30 17 -26 6 4 8 3 5 -3 -6 -10 24 -117 36 -129
4 -4 7 -20 7 -35 0 -18 7 -32 19 -39 26 -13 34 -13 25 2 -4 7 -3 8 4 4 6 -4 8
-14 5 -22 -3 -9 0 -20 8 -25 11 -7 10 -9 -4 -9 -11 0 -21 9 -24 20 -3 11 -9
20 -13 20 -17 0 28 -105 49 -114 18 -8 20 -16 17 -65 -3 -31 -1 -47 3 -36 7
17 8 17 13 -8 3 -16 1 -27 -6 -28 -6 0 -2 -4 10 -9 18 -7 21 -15 17 -49 -2
-22 2 -51 9 -63 7 -13 11 -30 10 -38 -1 -8 3 -5 10 8 9 19 8 25 -8 36 -10 8
-16 18 -11 22 4 4 7 2 7 -4 0 -7 7 -12 16 -12 9 0 12 5 8 12 -4 6 -3 8 4 4 7
-4 7 -17 1 -42 -14 -49 -8 -59 23 -35 14 12 32 21 38 21 7 0 2 -8 -11 -18 -15
-13 -19 -21 -11 -26 7 -4 12 -2 12 3 0 6 5 10 12 9 10 -3 118 216 115 232 -1
3 9 24 21 47 12 23 22 49 22 58 0 8 4 15 8 15 9 0 16 13 46 82 18 41 31 53 41
38 4 -6 11 -8 16 -5 12 8 30 -41 22 -62 -3 -10 -2 -15 2 -10 5 4 18 1 30 -7
18 -12 22 -12 22 -1 0 8 -4 12 -9 9 -14 -9 -8 23 7 36 14 12 19 7 16 -13 -1
-5 3 -6 8 -2 6 3 13 -6 17 -20 3 -14 11 -25 17 -25 6 0 7 -3 4 -7 -4 -3 -16 2
-27 12 -20 18 -21 18 -14 0 5 -12 1 -22 -12 -32 -18 -13 -18 -14 3 -19 15 -4
20 -11 15 -22 -5 -14 -4 -15 10 -2 12 12 13 18 4 29 -9 12 -8 12 11 0 15 -9
18 -16 11 -20 -9 -6 -8 -12 3 -25 12 -16 12 -17 -1 -12 -11 4 -16 0 -16 -13 0
-12 4 -15 12 -8 8 6 11 1 10 -18 -1 -14 5 -28 12 -30 8 -3 10 2 6 14 -5 14 -4
15 4 4 16 -23 4 -43 -19 -30 -10 5 -19 14 -19 20 0 6 -4 7 -10 4 -5 -3 -10 2
-10 11 0 10 -3 15 -6 11 -9 -8 6 -48 16 -42 4 3 15 -6 24 -20 18 -27 22 -49 5
-25 -8 11 -9 8 -4 -15 3 -16 11 -34 17 -40 8 -7 8 -5 3 5 -8 13 -6 13 7 2 9
-8 14 -20 11 -27 -3 -8 2 -21 10 -30 17 -16 32 -20 23 -6 -3 5 1 12 10 15 22
8 26 8 19 -4 -3 -5 -1 -10 4 -10 6 0 11 4 11 9 0 5 6 11 13 14 8 3 14 -1 14
-9 0 -7 -3 -12 -6 -10 -13 8 -27 -20 -26 -51 0 -18 -3 -29 -9 -26 -5 4 -7 -1
-3 -10 4 -10 1 -17 -6 -18 -7 0 -3 -4 8 -8 27 -11 39 1 54 51 33 112 195 630
215 687 27 74 25 76 -49 76 l-66 0 -11 -40 c-6 -22 -19 -58 -29 -81 -11 -22
-19 -50 -19 -62 0 -12 -11 -56 -25 -98 -14 -43 -23 -79 -20 -82 3 -3 1 -10 -4
-16 -11 -13 -41 -113 -36 -118 2 -2 -4 -14 -14 -27 l-18 -23 -13 33 c-7 19
-18 48 -25 64 -6 17 -18 45 -25 62 -7 18 -17 30 -23 26 -5 -3 -7 -2 -4 4 8 13
-23 94 -34 87 -5 -3 -6 2 -3 10 3 9 -3 35 -14 58 -11 24 -23 54 -27 68 -11 35
-63 137 -74 144 -5 4 -17 -4 -25 -16z m24 -76 c0 -3 -11 -20 -26 -39 -14 -18
-23 -37 -20 -42 3 -5 -1 -12 -10 -15 -8 -3 -12 -11 -8 -17 4 -7 3 -9 -4 -5
-11 6 10 60 29 71 5 4 9 16 9 29 0 13 6 23 15 23 8 0 15 -3 15 -5z m27 -34
c-2 -7 3 -22 11 -33 14 -17 13 -17 -7 1 -13 12 -20 27 -17 33 10 15 19 14 13
-1z m28 -78 c3 -6 -1 -7 -9 -4 -18 7 -21 14 -7 14 6 0 13 -4 16 -10z m40 -82
c2 -29 -11 -30 -23 -3 -10 21 -9 23 6 18 16 -6 16 -5 0 14 -10 11 -18 24 -18
29 0 16 34 -40 35 -58z m-477 9 c2 -9 -2 -17 -8 -17 -7 0 -10 6 -7 14 3 8 2
17 -4 20 -5 2 -4 3 3 2 7 -1 14 -10 16 -19z m-48 -7 c0 -5 -8 -10 -17 -10 -15
0 -16 2 -3 10 19 12 20 12 20 0z m335 -10 c3 -5 -1 -10 -10 -10 -9 0 -13 5
-10 10 3 6 8 10 10 10 2 0 7 -4 10 -10z m471 -25 c1 -9 -4 -11 -14 -7 -10 4
-12 7 -4 10 7 2 9 9 5 15 -3 7 -2 8 2 4 5 -4 10 -14 11 -22z m44 11 c0 -2 -8
-10 -17 -17 -16 -13 -17 -12 -4 4 13 16 21 21 21 13z m-795 -34 c-1 -9 1 -22
6 -28 5 -6 4 -11 -4 -11 -7 0 -13 15 -14 34 -1 18 2 31 7 28 4 -3 7 -13 5 -23z
m30 -1 c3 -5 2 -12 -3 -15 -5 -3 -9 1 -9 9 0 17 3 19 12 6z m225 -15 c0 -2 -8
-10 -17 -17 -16 -13 -17 -12 -4 4 13 16 21 21 21 13z m507 -11 c0 -8 -4 -12
-9 -9 -5 3 -6 10 -3 15 9 13 12 11 12 -6z m-799 -21 c20 -21 27 -51 8 -35 -7
6 -15 8 -18 5 -3 -2 -8 7 -10 21 -6 29 -2 31 20 9z m58 -22 c-14 -14 -17 -14
-14 -2 3 17 20 31 27 24 3 -2 -3 -12 -13 -22z m709 18 c-3 -5 -12 -10 -18 -10
-7 0 -6 4 3 10 19 12 23 12 15 0z m-485 -10 c0 -5 -5 -10 -11 -10 -5 0 -7 5
-4 10 3 6 8 10 11 10 2 0 4 -4 4 -10z m510 -94 c0 -2 -8 -10 -17 -17 -16 -13
-17 -12 -4 4 13 16 21 21 21 13z m-176 -122 c3 -8 2 -12 -4 -9 -6 3 -10 10
-10 16 0 14 7 11 14 -7z m100 -119 c-4 -8 -11 -15 -16 -15 -6 0 -5 6 2 15 7 8
14 15 16 15 2 0 1 -7 -2 -15z"/>
<path d="M1643 847 c-98 -40 -139 -70 -186 -134 -53 -74 -77 -150 -77 -247 0
-62 4 -87 15 -96 10 -9 15 -9 15 -1 0 6 -5 11 -11 11 -8 0 -8 5 1 15 7 8 10
21 7 30 -4 8 -2 17 3 20 5 3 7 13 4 23 -4 10 -3 13 3 6 11 -15 41 -14 47 3 3
7 -1 13 -9 13 -8 0 -15 7 -15 15 0 13 4 14 21 4 13 -7 19 -17 16 -29 -2 -10
-1 -24 4 -31 6 -10 9 -5 10 16 1 29 1 30 9 5 7 -21 8 -18 9 20 3 108 95 222
211 263 25 8 37 16 27 16 -10 1 -16 5 -13 10 3 5 -2 11 -12 13 -22 5 -85 -25
-75 -36 4 -5 -5 -6 -21 -3 -30 5 -61 -14 -48 -28 4 -5 0 -4 -8 1 -8 5 -24 8
-35 6 -16 -1 -15 1 5 10 14 6 27 12 30 13 27 9 68 33 78 48 14 18 37 14 26 -5
-4 -7 -2 -8 5 -4 6 4 9 11 6 16 -3 4 2 10 10 14 8 3 19 -3 25 -12 9 -15 10
-15 8 3 -3 17 3 20 39 21 26 1 40 -2 37 -8 -4 -6 1 -6 13 1 14 7 24 7 33 -2
10 -9 11 -9 6 0 -5 9 1 9 24 3 16 -5 30 -6 30 -2 0 4 5 -1 11 -10 5 -10 17
-18 25 -18 8 0 12 5 8 11 -3 6 7 4 24 -5 16 -8 33 -12 37 -8 5 4 5 2 2 -4 -3
-6 17 -21 48 -34 30 -13 52 -27 49 -32 -3 -4 2 -8 11 -8 9 0 14 -4 10 -10 -3
-6 -15 -5 -31 2 -20 10 -27 9 -34 -2 -11 -18 15 -70 35 -70 20 0 36 -33 24
-51 -7 -12 -9 -12 -10 1 -1 8 -1 22 0 30 0 10 -1 11 -5 2 -3 -6 -11 -9 -17 -5
-7 4 -6 -1 2 -10 7 -9 10 -17 6 -17 -4 0 -2 -7 5 -15 7 -8 16 -12 21 -9 5 3 9
-2 9 -10 0 -9 -4 -16 -9 -16 -5 0 -8 -29 -7 -65 1 -36 -1 -65 -6 -65 -4 0 -8
-7 -8 -15 0 -8 6 -15 13 -15 9 0 9 -2 -1 -9 -7 -4 -14 -16 -16 -25 -1 -10 -7
-21 -12 -24 -23 -16 -42 -59 -33 -73 8 -12 11 -11 19 3 6 9 17 24 25 32 9 8
12 22 8 32 -4 12 -3 15 5 10 8 -4 10 -2 6 7 -3 8 0 18 6 22 14 9 11 -53 -3
-73 -7 -9 -3 -12 12 -12 12 0 20 4 17 9 -10 15 6 43 20 37 7 -3 20 2 29 10 8
9 15 11 15 5 0 -6 -12 -18 -27 -26 -16 -9 -20 -14 -10 -11 9 3 17 3 17 0 0
-12 -24 -51 -49 -79 -14 -16 -18 -23 -8 -16 9 7 17 10 17 5 0 -5 11 8 25 28
14 20 25 42 25 48 0 6 7 24 15 39 8 16 18 48 21 72 l7 43 -28 -18 c-15 -10
-24 -13 -21 -7 4 6 2 11 -4 11 -6 0 -8 5 -5 10 4 6 11 8 16 5 5 -4 9 -1 9 4 0
6 -6 11 -14 11 -9 0 -13 7 -11 20 2 11 -1 22 -6 25 -5 4 -7 10 -5 14 3 4 1 13
-4 21 -7 11 -11 11 -24 1 -11 -9 -16 -10 -16 -2 0 6 4 11 10 11 6 0 6 10 0 28
-9 24 -8 25 4 10 7 -10 19 -18 27 -18 11 0 12 2 1 9 -7 4 -19 20 -27 34 -11
22 -11 28 0 37 8 7 15 7 19 1 3 -5 1 -11 -6 -13 -13 -5 -2 -28 13 -28 6 0 7 5
3 12 -4 7 -3 8 5 4 6 -4 9 -11 7 -15 -7 -11 15 -101 25 -101 6 0 6 8 -1 19 -5
11 -9 44 -7 74 2 51 -1 58 -43 113 -90 116 -186 163 -350 170 -90 5 -99 3
-177 -29z m-130 -152 c-10 -7 -20 -12 -21 -10 -7 7 23 33 31 28 5 -3 0 -11
-10 -18z m597 -37 c0 -14 -19 1 -31 25 -12 22 -12 22 10 3 11 -11 21 -23 21
-28z m43 17 c-7 -19 -17 -19 -32 -1 -10 11 -8 15 6 18 25 6 33 0 26 -17z
m-630 -19 c-10 -13 -19 -23 -21 -21 -5 5 22 45 31 45 4 0 0 -11 -10 -24z m-38
4 c-3 -5 -11 -10 -16 -10 -6 0 -7 5 -4 10 3 6 11 10 16 10 6 0 7 -4 4 -10z
m-36 -66 c-7 -9 -14 -23 -15 -31 -5 -30 -14 -44 -25 -37 -8 5 -8 8 0 13 6 4
13 18 16 30 5 26 25 54 33 46 3 -2 -1 -12 -9 -21z m35 -23 c3 -5 0 -11 -7 -14
-8 -3 -14 1 -14 9 0 16 13 19 21 5z m-14 -41 c0 -5 -2 -10 -4 -10 -3 0 -8 5
-11 10 -3 6 -1 10 4 10 6 0 11 -4 11 -10z m693 -37 c-7 -2 -13 -14 -14 -26 0
-12 -3 -16 -6 -9 -7 18 4 42 19 41 10 0 10 -2 1 -6z m17 -53 c0 -5 -5 -10 -11
-10 -5 0 -7 5 -4 10 3 6 8 10 11 10 2 0 4 -4 4 -10z m17 -58 c4 2 8 0 8 -3 0
-3 7 -14 15 -25 8 -10 10 -16 5 -11 -4 4 -17 -1 -28 -10 -19 -17 -19 -17 -13
3 4 14 1 27 -8 37 -8 8 -12 17 -9 21 4 3 1 6 -5 6 -6 0 -12 -8 -15 -17 -2 -10
-4 -3 -4 14 l0 33 23 -25 c13 -14 27 -24 31 -23z"/>
<path d="M2570 793 c-1 -310 1 -694 5 -713 6 -33 11 -35 40 -12 17 14 22 22
13 26 -7 3 -4 4 8 1 15 -4 24 1 31 17 9 21 10 19 9 -12 -1 -19 -5 -40 -9 -47
-5 -8 -1 -11 13 -10 19 1 20 8 20 119 0 107 2 118 20 128 11 6 20 17 20 25 0
9 6 12 17 8 11 -4 14 -3 9 5 -4 7 -1 12 8 12 8 0 16 -3 19 -7 2 -5 2 -2 1 5
-2 6 1 12 7 12 6 0 8 4 4 9 -3 5 -1 13 5 16 6 4 9 1 8 -7 -2 -9 7 -12 27 -11
21 2 26 0 15 -7 -8 -5 -18 -6 -22 -4 -4 3 -8 0 -8 -6 0 -6 8 -10 18 -8 9 2 16
-3 14 -9 -1 -7 3 -13 9 -13 5 0 8 -4 5 -9 -3 -5 1 -12 10 -15 9 -3 14 -12 11
-20 -3 -7 3 -20 14 -30 28 -23 32 -20 12 11 -14 21 -14 25 -3 21 8 -2 16 -10
16 -16 1 -7 3 -14 4 -17 1 -3 3 -8 4 -12 3 -16 40 -52 48 -47 5 3 8 2 7 -3 -1
-4 -1 -17 0 -28 1 -17 3 -18 11 -5 8 13 10 13 10 -2 0 -9 9 -20 20 -23 11 -3
20 -11 20 -17 0 -5 -7 -7 -16 -4 -8 3 -12 2 -9 -4 3 -6 17 -7 31 -4 18 5 24 2
24 -9 0 -12 9 -15 40 -13 22 2 37 0 35 -5 -7 -10 32 -22 45 -14 5 3 10 31 10
61 l0 54 -35 0 c-46 0 -87 21 -105 55 -8 15 -27 36 -42 47 -36 25 -39 73 -5
82 20 5 71 66 67 81 -1 4 6 12 14 18 17 13 31 82 15 72 -5 -4 -9 -14 -9 -24 0
-29 -40 -73 -61 -68 -13 3 -17 1 -12 -6 11 -17 12 -37 4 -37 -4 0 -16 10 -27
23 -10 12 -15 19 -10 15 5 -4 17 3 28 15 11 12 16 16 12 8 -5 -9 -3 -12 5 -7
6 4 9 11 6 16 -3 5 -1 11 5 15 5 3 10 14 10 24 0 10 9 21 20 24 11 3 20 11 20
19 0 10 -3 9 -10 -2 -8 -12 -10 -11 -10 8 0 20 10 27 33 23 5 -1 6 3 2 9 -3 6
-10 8 -15 5 -13 -8 -25 17 -21 47 2 23 -1 27 -16 21 -10 -3 -15 -3 -12 1 4 4
19 9 35 12 38 7 39 10 28 42 -7 18 -16 26 -28 24 -13 -2 -16 1 -12 15 10 32
-38 75 -115 103 -46 17 -80 20 -231 20 l-178 0 0 -67z m275 17 c-7 -11 48 -9
63 2 9 8 12 3 12 -20 0 -25 3 -30 16 -25 9 3 20 0 24 -7 10 -17 44 -5 34 12
-5 10 -4 10 6 1 7 -6 28 -9 49 -7 29 4 33 3 18 -6 -9 -6 -22 -8 -29 -4 -8 5
-9 2 -5 -9 8 -22 -9 -22 -21 0 -9 14 -11 14 -22 -7 -11 -21 -10 -22 6 -16 10
4 15 4 11 0 -4 -4 -1 -14 6 -22 10 -13 9 -14 -10 -4 -12 7 -24 12 -28 12 -10
0 24 -57 37 -63 9 -3 13 -26 12 -78 -1 -71 -1 -72 16 -51 17 21 18 21 23 2 3
-11 1 -18 -4 -14 -5 3 -9 0 -9 -6 0 -6 -4 -9 -8 -6 -5 3 -23 -4 -42 -15 -26
-16 -30 -23 -19 -30 11 -7 9 -9 -7 -9 -12 0 -33 -9 -47 -20 -21 -17 -43 -21
-116 -23 -73 -2 -91 -5 -92 -17 0 -8 -5 -4 -10 10 -14 34 -11 340 3 357 6 7
20 13 33 13 14 0 26 9 33 25 10 21 9 25 -4 25 -8 0 -13 4 -10 8 2 4 23 6 45 4
23 -2 39 -8 36 -12z m127 -22 c-9 -9 -15 -9 -24 0 -9 9 -7 12 12 12 19 0 21
-3 12 -12z m112 -60 c-4 -34 -4 -34 -15 -15 -5 9 -7 22 -4 27 11 18 22 11 19
-12z m30 -36 c3 -5 -1 -9 -9 -9 -8 0 -12 4 -9 9 3 4 7 8 9 8 2 0 6 -4 9 -8z
m-442 -104 c-7 -7 -12 -8 -12 -2 0 14 12 26 19 19 2 -3 -1 -11 -7 -17z m398
-13 c-7 -9 -15 -13 -19 -10 -3 3 1 10 9 15 21 14 24 12 10 -5z m-406 -62 c-10
-7 -23 -13 -28 -13 -6 0 -3 5 7 11 9 5 17 18 17 28 0 28 15 36 18 10 2 -14 -3
-28 -14 -36z m382 -45 c4 -7 4 -10 -1 -6 -4 4 -15 2 -24 -5 -14 -11 -14 -10
-2 6 16 20 18 21 27 5z m-370 -63 c-3 -19 -26 -44 -26 -28 0 6 6 14 13 16 6 3
3 6 -8 7 l-20 1 20 9 c11 5 21 9 22 9 1 1 0 -6 -1 -14z m-66 -296 c0 -5 -4 -9
-10 -9 -5 0 -10 7 -10 16 0 8 5 12 10 9 6 -3 10 -10 10 -16z"/>
<path d="M3517 853 c-9 -8 -9 -776 -1 -797 5 -12 10 -14 19 -6 7 6 17 9 21 8
5 -2 23 10 40 25 25 22 31 34 28 60 -3 21 -1 27 5 18 10 -15 8 -45 -5 -76 -8
-19 -7 -19 10 -2 15 15 18 29 13 75 -3 31 -9 66 -13 76 -5 14 -4 17 4 12 9 -5
12 17 12 83 0 54 4 91 10 91 6 0 10 -5 10 -11 0 -16 98 -114 106 -106 4 4 2 7
-5 7 -7 0 -9 5 -6 10 3 6 1 10 -4 10 -21 0 -10 29 18 49 21 15 28 27 24 42 -4
16 -8 17 -14 7 -7 -10 -9 -10 -9 0 0 7 7 15 15 18 8 4 15 11 15 16 0 6 -8 7
-17 4 -17 -7 -17 -6 0 11 14 14 19 15 26 5 6 -10 10 -10 21 3 10 12 10 18 -1
32 -13 15 -12 16 8 11 13 -4 26 -1 30 5 3 7 3 9 -2 5 -13 -12 -34 12 -28 30 6
15 5 15 -10 3 -9 -7 -15 -17 -12 -21 3 -4 -5 -10 -18 -14 -37 -10 -40 -7 -16
14 14 11 18 19 11 20 -7 0 -10 5 -7 10 4 6 11 8 16 5 5 -3 6 1 3 9 -3 9 3 19
17 27 13 6 30 20 39 31 13 17 17 17 35 5 17 -13 18 -17 5 -33 -8 -11 -2 -8 13
5 15 14 30 21 34 17 7 -7 0 -15 -52 -52 -11 -8 -15 -17 -10 -22 6 -4 9 -6 8
-3 -1 2 21 26 49 52 29 27 48 49 42 49 -5 0 -15 -5 -22 -12 -9 -9 -12 -9 -12
0 0 7 8 15 18 18 30 10 47 22 44 33 -1 6 1 10 6 9 4 -2 35 26 69 62 69 72 67
80 -15 76 -56 -2 -75 -12 -52 -26 8 -5 11 -12 7 -17 -5 -4 -12 -1 -17 7 -7 12
-13 13 -27 3 -10 -6 -17 -16 -15 -22 1 -6 -4 -10 -10 -9 -7 2 -12 -3 -10 -10
1 -8 -2 -11 -7 -8 -5 3 -29 -18 -52 -46 -24 -29 -67 -80 -96 -112 -29 -32 -50
-63 -46 -69 3 -6 1 -7 -5 -4 -12 8 -65 -51 -56 -64 3 -5 0 -8 -8 -7 -7 2 -14
-7 -16 -20 -3 -21 -5 -19 -23 15 -20 39 -28 82 -9 53 6 -9 9 48 9 163 l0 177
-63 0 c-34 0 -66 -3 -69 -7z m572 -42 c11 -7 5 -16 -25 -43 -21 -18 -60 -53
-86 -77 -40 -36 -50 -42 -63 -31 -8 7 -15 16 -15 19 0 15 73 92 101 107 40 20
36 10 -6 -16 -19 -12 -32 -26 -29 -32 4 -5 12 -4 22 5 10 8 22 13 27 11 6 -2
15 6 20 18 6 13 15 23 22 23 6 0 15 4 20 9 5 5 3 6 -4 2 -7 -4 -13 -2 -13 3 0
13 10 14 29 2z m-476 -46 c4 -8 3 -16 -1 -19 -4 -3 -9 4 -9 15 -2 23 3 25 10
4z m5 -86 c-10 -6 -10 -11 0 -21 16 -16 15 -43 -3 -58 -10 -9 -15 -9 -15 -1 0
6 5 11 10 11 6 0 10 10 10 22 0 21 0 21 -14 2 -13 -17 -14 -16 -7 18 5 20 6
40 3 43 -4 3 2 3 12 -1 14 -5 15 -9 4 -15z m172 -113 c0 -3 -4 -8 -10 -11 -5
-3 -10 -1 -10 4 0 6 5 11 10 11 6 0 10 -2 10 -4z m43 -68 c-2 -4 -10 -2 -17 5
-8 6 -12 15 -9 19 2 4 10 2 17 -5 8 -6 12 -15 9 -19z m-221 -11 c-2 -11 2 -15
13 -11 8 3 15 2 15 -3 0 -5 -9 -9 -20 -10 -11 -1 -20 4 -20 13 0 16 -12 18
-26 4 -7 -7 -11 -6 -11 4 0 8 4 13 8 10 4 -2 11 0 14 6 10 16 30 6 27 -13z
m153 -87 c-3 -5 -12 -10 -18 -10 -7 0 -6 4 3 10 19 12 23 12 15 0z m-139 -159
c0 -27 -3 -48 -7 -45 -4 2 -10 -8 -12 -23 -3 -16 -4 -1 -4 32 1 48 10 85 21
85 1 0 2 -22 2 -49z"/>
<path d="M3988 731 c-7 -12 -16 -21 -21 -21 -4 0 -5 6 -1 13 6 9 5 9 -8 0 -8
-7 -17 -10 -20 -7 -3 2 -8 -2 -11 -10 -11 -27 21 -25 54 5 18 16 30 32 26 35
-3 3 -12 -3 -19 -15z"/>
<path d="M4468 793 c-7 -142 3 -743 12 -743 6 0 10 8 10 18 0 10 5 23 11 29 8
8 8 13 0 17 -14 9 -14 26 -1 26 6 0 10 -7 10 -15 0 -8 7 -15 16 -15 8 0 12 -4
9 -10 -3 -5 -2 -10 4 -10 5 0 13 4 16 10 7 12 -10 46 -22 42 -19 -7 -11 24 9
33 12 6 24 17 26 25 5 13 3 13 -12 1 -9 -8 -19 -11 -23 -7 -3 3 -1 6 6 6 7 0
9 5 6 10 -3 6 1 13 9 16 11 4 16 19 16 44 0 21 4 40 8 42 5 2 12 19 15 38 5
26 4 31 -4 20 -9 -13 -10 -13 -6 0 2 8 -3 21 -12 28 -14 11 -13 12 5 3 12 -6
32 -8 45 -5 13 2 62 7 108 9 92 4 119 17 86 41 -19 15 -19 15 5 12 18 -2 25
-9 24 -24 0 -14 5 -21 15 -19 9 1 24 -2 34 -7 15 -8 18 -6 17 9 -4 31 0 40 14
40 8 0 14 -5 13 -10 -1 -5 3 -11 8 -13 6 -2 11 9 12 25 2 35 20 32 -193 34
-119 2 -165 6 -177 16 -14 11 -17 11 -18 0 0 -8 -4 -5 -9 6 -12 28 -12 37 0
30 6 -3 10 -1 10 5 0 6 5 8 11 5 8 -6 -1 17 -19 45 -2 2 -7 -1 -11 -9 -6 -10
-10 -9 -14 4 -4 9 -3 14 1 12 4 -3 13 1 20 9 7 8 10 14 7 14 -4 0 3 16 15 35
13 21 20 46 18 60 -6 27 7 35 58 35 31 0 40 8 35 34 -1 5 5 3 14 -4 13 -11 15
-10 9 3 -3 9 -13 18 -22 20 -15 3 126 10 168 8 8 -1 30 -1 49 -1 19 0 41 -6
50 -13 12 -9 13 -9 7 1 -4 7 -2 12 5 12 7 0 9 -9 6 -22 -6 -22 -6 -22 8 -4 8
11 15 30 15 41 0 22 -1 22 -264 24 l-264 2 -4 -68z m86 -289 c3 -9 1 -23 -4
-32 -9 -15 -10 -15 -8 3 1 11 -1 26 -5 33 -5 6 -4 12 1 12 6 0 13 -7 16 -16z
m36 -14 c0 -5 -4 -10 -10 -10 -5 0 -10 5 -10 10 0 6 5 10 10 10 6 0 10 -4 10
-10z m197 -37 c-4 -3 1 -12 11 -19 9 -8 12 -14 5 -14 -6 0 -15 5 -18 10 -4 6
-12 7 -18 3 -7 -4 -6 0 2 10 7 9 16 17 19 17 3 0 2 -3 -1 -7z m110 -12 c-1
-14 -5 -17 -13 -10 -8 7 -14 6 -17 -3 -3 -7 -6 -3 -6 10 -1 15 5 22 18 22 13
0 19 -6 18 -19z m-390 -13 c-3 -8 -6 -5 -6 6 -1 11 2 17 5 13 3 -3 4 -12 1
-19z m243 12 c0 -5 -4 -10 -10 -10 -5 0 -10 5 -10 10 0 6 5 10 10 10 6 0 10
-4 10 -10z m-194 -122 c4 -7 3 -8 -4 -4 -7 4 -12 2 -12 -3 0 -6 4 -11 9 -11 9
0 9 -55 0 -65 -3 -3 -12 1 -19 10 -10 12 -10 15 0 15 8 0 10 9 6 25 -9 36 5
58 20 33z m-49 -115 c-3 -10 -5 -4 -5 12 0 17 2 24 5 18 2 -7 2 -21 0 -30z m3
-35 c0 -10 -17 -10 -24 0 -3 5 1 9 9 9 8 0 15 -4 15 -9z"/>
<path d="M5340 490 c0 -314 2 -369 14 -358 7 7 12 17 10 23 -11 33 -11 104 0
108 9 4 11 -11 9 -54 -3 -60 2 -69 27 -46 8 6 4 0 -9 -15 -13 -14 -20 -31 -16
-37 3 -6 1 -11 -5 -11 -6 0 -8 -4 -5 -10 3 -5 13 -10 21 -10 8 0 13 3 11 8 -3
4 5 7 17 7 27 0 30 -30 6 -45 -11 -7 -12 -10 -2 -10 33 0 42 27 42 134 0 60 4
107 10 111 6 4 8 10 5 15 -3 4 3 7 13 6 10 0 16 5 14 13 -3 12 -1 12 14 0 16
-12 17 -12 12 3 -4 10 -1 19 8 22 23 9 34 7 34 -5 0 -6 -7 -8 -17 -4 -14 5
-15 4 -6 -6 8 -8 17 -9 25 -3 20 14 53 10 50 -6 -2 -10 4 -8 20 5 17 15 19 16
9 3 -11 -14 -11 -21 -1 -33 7 -8 10 -21 7 -29 -4 -10 3 -17 23 -21 19 -4 27
-11 24 -20 -4 -9 3 -16 20 -21 14 -3 23 -10 20 -16 -8 -12 81 -98 101 -98 9 0
13 -5 10 -10 -4 -6 -11 -7 -17 -4 -6 4 -8 2 -5 -3 10 -17 103 -1 110 18 4 11
-29 36 -43 32 -13 -4 -13 -3 -1 5 18 13 58 -4 64 -27 3 -9 5 -1 6 18 1 26 -2
32 -15 27 -8 -3 -12 -2 -9 4 5 9 -22 14 -62 13 -7 -1 -11 2 -8 6 2 4 -5 14
-16 21 -10 8 -19 19 -19 25 0 6 -16 26 -35 45 -25 24 -34 41 -32 58 3 25 25
44 41 35 5 -3 6 -1 2 5 -3 6 4 20 16 31 12 12 17 21 11 21 -6 0 -16 -7 -23
-15 -7 -8 -17 -12 -22 -9 -5 3 -1 12 8 18 13 10 14 15 4 21 -8 5 -11 4 -6 -3
4 -7 -1 -10 -14 -9 -23 1 -12 17 16 22 11 1 18 8 16 15 -1 6 3 10 10 7 7 -2
12 -11 12 -20 -2 -20 25 -15 42 8 20 27 17 44 -8 55 -13 5 -17 9 -9 9 9 1 10
5 3 14 -5 6 -9 28 -8 47 2 19 -1 43 -6 53 -6 12 -5 17 4 17 10 0 10 2 0 9 -10
6 -7 10 13 15 18 5 25 12 23 24 -2 9 -10 16 -17 14 -9 -2 -11 3 -8 13 5 13 2
12 -20 -2 -15 -10 -24 -12 -20 -5 5 6 4 12 -2 12 -6 0 -11 7 -11 16 0 13 3 14
14 5 10 -9 15 -8 19 2 7 18 0 27 -44 60 -62 46 -117 57 -301 57 l-168 0 0
-370z m224 308 c-6 -22 -6 -22 13 -6 13 12 23 14 30 7 6 -6 18 -6 36 0 26 10
48 -2 25 -13 -7 -4 -3 -4 8 -2 15 2 26 -4 34 -20 7 -13 17 -21 22 -18 4 3 8
-1 8 -9 0 -8 7 -18 15 -21 12 -4 13 -10 6 -24 -6 -12 -6 -23 1 -33 8 -11 9
-11 4 3 -3 10 -1 20 4 23 10 6 14 -34 10 -84 -1 -13 2 -21 7 -18 5 3 15 2 23
-4 13 -7 13 -9 0 -10 -8 -1 -18 -1 -22 0 -16 2 -7 -19 12 -29 23 -13 27 -40 5
-40 -8 0 -15 -4 -15 -10 0 -5 -8 -10 -19 -10 -10 0 -24 -7 -31 -15 -10 -12
-10 -15 0 -15 20 0 6 -10 -20 -15 -13 -2 -30 -11 -39 -19 -10 -9 -49 -16 -105
-20 -50 -3 -92 -10 -96 -16 -5 -7 -10 -3 -13 11 -6 23 -6 23 -29 3 -13 -11
-18 -12 -10 -3 6 9 8 20 4 24 -4 5 -1 5 6 1 18 -11 20 4 25 171 2 84 7 156 10
160 7 6 30 10 69 12 13 1 16 8 13 31 -2 17 1 30 6 30 6 0 7 -10 3 -22z m176
-2 c0 -3 -4 -8 -10 -11 -5 -3 -10 -1 -10 4 0 6 5 11 10 11 6 0 10 -2 10 -4z
m97 -29 c2 -3 -5 -7 -16 -10 -11 -3 -26 2 -32 10 -10 12 -8 13 16 9 15 -3 29
-7 32 -9z m-63 -5 c3 -5 -1 -9 -9 -9 -8 0 -12 4 -9 9 3 4 7 8 9 8 2 0 6 -4 9
-8z m113 -79 c-2 -2 -14 -6 -27 -8 -18 -3 -20 -2 -10 10 6 8 18 11 26 8 8 -3
13 -7 11 -10z m-449 -81 c2 -7 -2 -10 -12 -6 -9 3 -16 11 -16 16 0 13 23 5 28
-10z m-1 -48 c-9 -9 -28 6 -21 18 4 6 10 6 17 -1 6 -6 8 -13 4 -17z m-42 -14
c4 -6 1 -9 -7 -8 -8 2 -12 -5 -11 -20 2 -15 -1 -21 -8 -16 -6 3 -3 -6 7 -22
11 -15 14 -25 7 -21 -9 6 -12 -6 -10 -47 1 -30 6 -52 11 -48 5 3 6 0 2 -7 -4
-6 -11 -9 -16 -6 -4 3 -11 -1 -14 -7 -3 -7 -5 32 -4 87 0 79 4 102 17 112 20
15 19 15 26 3z m35 -10 c-12 -8 -12 -10 -1 -10 8 0 12 -3 8 -6 -9 -9 -28 6
-22 17 4 5 12 9 18 9 7 0 6 -4 -3 -10z m-20 -24 c0 -3 -4 -8 -10 -11 -5 -3
-10 -1 -10 4 0 6 5 11 10 11 6 0 10 -2 10 -4z m24 -27 c-3 -5 -10 -7 -15 -3
-5 3 -7 10 -3 15 3 5 10 7 15 3 5 -3 7 -10 3 -15z m373 -3 c0 -8 -11 -19 -24
-25 -29 -13 -29 -8 -1 19 26 24 25 24 25 6z m-52 -56 c-3 -5 -12 -10 -18 -10
-7 0 -6 4 3 10 19 12 23 12 15 0z m-175 -46 c0 -8 -19 -13 -24 -6 -3 5 1 9 9
9 8 0 15 -2 15 -3z m45 -24 c-27 -12 -35 -12 -35 0 0 6 12 10 28 9 24 0 25 -1
7 -9z m70 -98 c-3 -3 -11 0 -18 7 -9 10 -8 11 6 5 10 -3 15 -9 12 -12z"/>
<path d="M1764 822 c3 -5 0 -13 -6 -15 -9 -4 -10 -6 -1 -6 17 -1 25 16 12 25
-7 4 -9 3 -5 -4z"/>
<path d="M1878 803 c7 -3 16 -2 19 1 4 3 -2 6 -13 5 -11 0 -14 -3 -6 -6z"/>
<path d="M1963 785 c-3 -9 0 -22 7 -28 10 -10 11 -7 5 12 l-7 23 30 -22 c17
-12 33 -31 35 -41 5 -17 9 -18 31 -8 27 13 26 32 -1 22 -9 -3 -21 0 -27 8 -6
8 -23 22 -39 32 -25 16 -28 16 -34 2z"/>
<path d="M1986 712 c5 -4 27 -23 48 -42 l40 -35 -30 36 c-16 20 -38 39 -48 42
-10 3 -15 3 -10 -1z"/>
<path d="M3121 634 c0 -11 3 -14 6 -6 3 7 2 16 -1 19 -3 4 -6 -2 -5 -13z"/>
<path d="M3153 585 c0 -22 2 -30 4 -17 2 12 2 30 0 40 -3 9 -5 -1 -4 -23z"/>
<path d="M2224 556 c3 -21 8 -41 11 -44 2 -3 -1 -12 -8 -20 -10 -13 -9 -14 2
-7 11 6 13 4 9 -7 -4 -8 -2 -21 4 -29 6 -9 8 8 4 55 -3 38 -10 74 -16 80 -7 7
-9 -1 -6 -28z"/>
<path d="M3100 498 c-2 -5 -3 -11 -4 -15 -1 -5 -5 -15 -10 -23 -7 -11 -4 -11
9 2 9 9 15 22 12 30 -3 7 -6 10 -7 6z"/>
<path d="M1420 440 c0 -5 5 -10 10 -10 6 0 10 5 10 10 0 6 -4 10 -10 10 -5 0
-10 -4 -10 -10z"/>
<path d="M1501 417 c-1 -20 -5 -26 -13 -21 -7 4 -4 -2 6 -14 11 -12 16 -25 13
-28 -3 -4 0 -16 8 -28 18 -25 20 -50 3 -40 -10 6 -10 4 0 -8 10 -13 10 -17 -3
-22 -9 -3 -13 -11 -9 -17 3 -6 1 -14 -5 -18 -9 -6 -7 -13 6 -27 10 -11 15 -15
11 -9 -13 20 4 26 18 7 8 -10 13 -12 14 -4 0 6 6 12 13 12 6 0 -4 -15 -23 -32
-19 -18 -27 -29 -19 -26 9 4 22 1 28 -5 8 -8 11 -8 11 0 0 6 -6 14 -12 16 -7
3 2 4 19 4 34 -2 43 -11 21 -20 -10 -4 -10 -6 0 -6 7 -1 10 -5 7 -11 -4 -7 3
-7 19 0 16 6 26 6 26 0 0 -5 7 -7 15 -4 8 4 21 1 29 -5 19 -16 46 -3 39 17 -4
14 -3 15 5 2 6 -8 9 -17 6 -21 -6 -11 41 -16 64 -8 13 5 22 4 22 -1 0 -14 -48
-16 -130 -5 -45 6 -45 6 -25 -14 11 -11 34 -21 50 -22 17 -2 39 -9 50 -16 27
-18 52 -16 59 4 5 12 9 14 18 5 16 -16 45 -15 51 1 4 8 6 8 6 0 1 -13 109 11
126 28 6 6 -1 6 -17 0 -26 -10 -27 -9 -15 9 6 11 18 18 24 15 12 -4 18 8 14
29 -1 4 4 14 10 22 7 8 9 17 6 21 -4 3 -9 -2 -13 -11 -3 -9 -10 -13 -15 -10
-14 8 -10 24 6 24 8 0 15 6 15 13 0 8 3 9 8 1 8 -12 44 -15 36 -3 -7 11 48 59
59 52 6 -4 7 -1 3 6 -5 7 -11 10 -14 7 -3 -3 -11 -1 -19 5 -9 9 -13 8 -13 0 0
-21 -2 -26 -12 -38 -6 -7 -18 -13 -27 -12 -11 0 -12 2 -3 6 10 4 10 8 1 19
-10 13 -16 11 -38 -10 -14 -13 -55 -39 -91 -57 -82 -42 -139 -43 -225 -5 -101
45 -160 114 -186 216 -11 42 -18 55 -18 37z m513 -275 c2 -4 -4 -9 -15 -9 -11
-1 -17 2 -14 8 7 11 22 12 29 1z m-29 -31 c3 -5 2 -12 -3 -15 -5 -3 -9 1 -9 9
0 17 3 19 12 6z m-98 -23 c-3 -8 -6 -5 -6 6 -1 11 2 17 5 13 3 -3 4 -12 1 -19z
m-22 2 c3 -6 -1 -7 -9 -4 -18 7 -21 14 -7 14 6 0 13 -4 16 -10z"/>
<path d="M1475 420 c-3 -5 -1 -10 4 -10 6 0 11 5 11 10 0 6 -2 10 -4 10 -3 0
-8 -4 -11 -10z"/>
<path d="M156 405 c4 -8 8 -15 10 -15 2 0 4 7 4 15 0 8 -4 15 -10 15 -5 0 -7
-7 -4 -15z"/>
<path d="M1445 399 c-4 -6 -5 -12 -2 -15 2 -3 7 2 10 11 7 17 1 20 -8 4z"/>
<path d="M3801 387 c-8 -10 -1 -22 28 -51 24 -24 41 -34 45 -27 4 6 1 14 -8
17 -8 3 -17 13 -21 22 -3 9 10 1 29 -17 20 -19 36 -36 36 -37 0 -11 -67 9 -80
23 -8 11 -24 25 -35 33 -19 14 -5 -3 80 -96 55 -60 61 -68 62 -78 2 -11 24
-26 42 -26 8 0 11 6 7 16 -5 13 -4 14 7 6 8 -7 18 -8 22 -4 5 4 5 2 2 -4 -4
-7 0 -17 8 -24 8 -7 15 -17 15 -22 0 -6 -8 0 -18 12 -11 13 -24 20 -30 16 -18
-11 -14 -22 11 -35 12 -6 14 -9 5 -7 -22 6 -24 -12 -3 -20 8 -3 17 -14 20 -25
5 -16 16 -18 74 -17 38 0 74 -2 81 -7 9 -6 10 -3 1 12 -10 20 -354 353 -363
353 -3 0 -10 -6 -17 -13z m113 -133 c23 -25 39 -35 50 -31 12 5 15 3 10 -5 -5
-8 -1 -9 12 -5 18 7 18 6 2 -7 -10 -7 -18 -18 -18 -25 0 -6 -17 8 -37 31 -21
24 -44 47 -50 51 -13 8 -18 27 -7 27 3 0 20 -16 38 -36z"/>
<path d="M1466 363 c-4 -5 -13 -8 -18 -8 -6 0 -13 -7 -15 -15 -4 -12 -3 -12 5
-1 6 9 11 10 13 2 2 -6 10 -2 17 9 12 20 12 26 -2 13z"/>
<path d="M1485 260 c-4 -6 -11 -8 -16 -5 -16 10 -10 -2 9 -16 9 -7 14 -9 10
-5 -4 5 -3 15 3 23 6 7 9 13 6 13 -3 0 -9 -5 -12 -10z"/>
<path d="M4579 185 c-4 -14 -6 -21 -13 -37 -5 -11 0 -24 14 -38 28 -28 118
-35 138 -10 8 8 10 9 7 2 -5 -10 -1 -13 16 -10 13 2 23 9 22 16 -5 20 39 14
64 -10 13 -12 23 -16 23 -10 0 7 -4 12 -9 12 -5 0 -12 7 -15 16 -5 14 -4 15 8
5 11 -9 15 -8 21 6 6 17 7 17 20 0 10 -13 14 -15 18 -5 4 10 6 10 6 1 1 -7 5
-13 11 -13 5 0 7 8 3 18 -6 16 -5 16 14 -1 11 -9 23 -14 26 -10 4 3 7 2 7 -4
0 -6 6 -13 14 -16 9 -4 13 4 14 23 1 31 25 28 -246 35 -142 4 -167 8 -157 26
4 5 4 9 1 9 -3 0 -7 -2 -7 -5z m4 -40 c-3 -9 -8 -14 -10 -11 -3 3 -2 9 2 15 9
16 15 13 8 -4z m68 -42 c12 -16 12 -17 -2 -6 -9 7 -20 9 -24 5 -5 -4 -5 -1 -1
6 9 16 11 15 27 -5z"/>
<path d="M4790 90 c0 -5 5 -10 11 -10 5 0 7 5 4 10 -3 6 -8 10 -11 10 -2 0 -4
-4 -4 -10z"/>
<path d="M5340 70 c0 -5 7 -10 16 -10 8 0 12 5 9 10 -3 6 -10 10 -16 10 -5 0
-9 -4 -9 -10z"/>
<path d="M278 23 c7 -3 16 -2 19 1 4 3 -2 6 -13 5 -11 0 -14 -3 -6 -6z"/>
</g>
</svg>
