<svg version="1.1" id="Layer_1" xmlns="http://www.w3.org/2000/svg" xmlns:xlink="http://www.w3.org/1999/xlink" x="0px" y="0px"
	 width="100%" viewBox="0 0 512 296" enable-background="new 0 0 512 296" xml:space="preserve">
<path fill="#020204" opacity="1.000000" stroke="none" 
	d="
M293.000000,1.000000 
	C296.692902,1.000000 300.385834,1.000000 304.538513,1.358962 
	C304.964233,2.435014 304.930237,3.152104 304.881348,4.144009 
	C305.040466,4.918554 305.214417,5.418284 305.502441,6.270407 
	C306.082947,7.757508 306.549347,8.892219 307.009338,10.343314 
	C307.365936,11.394935 307.728973,12.130170 308.128540,13.204610 
	C308.492310,14.388884 308.819550,15.233953 309.163635,16.377640 
	C309.409943,16.995161 309.639465,17.314060 309.897156,17.932243 
	C310.271637,19.165689 310.617920,20.099850 310.961548,21.373947 
	C311.432983,22.721621 311.907074,23.729357 312.435150,25.084576 
	C313.574188,28.350897 314.659271,31.269737 315.842712,34.499348 
	C316.272980,35.072056 316.604858,35.333996 316.857178,35.954388 
	C316.981171,37.115585 317.116913,37.942936 317.397980,38.717567 
	C334.088867,84.719620 350.766113,130.726669 367.515198,176.707550 
	C370.849396,185.860794 374.462830,194.912323 377.943512,204.464874 
	C378.610382,206.606934 379.281219,208.294846 379.916626,209.999512 
	C379.881195,210.016281 380.001801,210.031860 380.006744,210.017639 
	C380.011688,210.003433 379.989410,210.030518 379.969177,210.415192 
	C384.054779,221.493073 388.160645,232.186264 392.281616,243.214020 
	C392.642670,244.362091 392.988586,245.175598 393.361664,246.258667 
	C393.670746,246.985016 393.952637,247.441803 394.224976,248.263489 
	C394.894989,250.429138 395.574554,252.229919 396.307861,254.391418 
	C397.218292,256.715637 398.074982,258.679169 398.814697,260.867493 
	C398.804749,261.405334 398.911774,261.718353 399.024902,262.416565 
	C400.184906,266.295746 401.338806,269.789734 402.492737,273.283691 
	C403.112732,273.253143 403.732727,273.222565 404.352753,273.192017 
	C405.040558,270.775940 405.728363,268.359833 406.658630,265.645233 
	C408.015991,261.258636 409.130981,257.170563 410.530945,252.859238 
	C412.194153,248.984573 413.610748,245.347107 414.943054,241.679031 
	C418.291168,232.461243 421.601166,223.229630 425.132324,213.707520 
	C427.636475,208.120285 430.174225,202.918671 432.192871,197.522873 
	C442.625031,169.637909 452.995026,141.729172 463.249512,113.778389 
	C472.870422,87.554619 482.320221,61.268078 492.025116,34.719833 
	C492.595917,33.139191 492.986877,31.847872 493.574677,30.229862 
	C494.384033,28.206640 494.996552,26.510111 495.698608,24.699369 
	C495.788147,24.585155 495.767212,24.295645 495.938110,24.003773 
	C497.797211,18.705158 499.485382,13.698418 501.390228,8.463356 
	C501.691193,7.831975 501.775482,7.428915 501.970642,6.591947 
	C502.075531,5.263783 502.069519,4.369527 502.292786,3.336141 
	C503.014709,2.464674 503.507355,1.732338 504.000000,1.000001 
	C506.998810,1.000000 509.997650,1.000000 512.997314,1.000000 
	C512.998230,99.626488 512.998230,198.252975 512.998230,296.939728 
	C342.440979,296.939728 171.881912,296.939728 1.161431,296.939728 
	C1.161431,198.333542 1.161431,99.666801 1.161431,1.000000 
	C5.724870,1.000000 10.389771,1.000000 15.634111,1.317139 
	C16.565777,2.449630 16.918003,3.264981 17.265825,4.462031 
	C17.301289,5.665983 17.134588,6.566559 17.412180,7.298677 
	C21.242775,17.401440 25.251177,27.438002 28.988789,37.574570 
	C39.240219,65.376892 49.352650,93.230446 59.578922,121.042091 
	C71.298470,152.914902 83.049072,184.776398 94.847443,216.620087 
	C103.289871,239.406113 111.807800,262.164368 120.398483,284.894745 
	C120.880119,286.169128 122.332268,287.076752 123.532654,288.357910 
	C124.101646,288.577271 124.470688,288.593842 125.234093,288.662323 
	C126.416939,288.643127 127.205421,288.572021 128.451660,288.606384 
	C152.940277,288.721405 176.971100,288.730988 201.461304,288.839813 
	C211.944016,288.875488 221.967331,288.811890 232.311127,288.837891 
	C233.727310,288.855072 234.823029,288.782715 236.279114,288.777222 
	C237.124176,288.800171 237.608856,288.756287 238.483582,288.807007 
	C243.612961,288.901581 248.352325,288.901581 253.824539,288.901581 
	C253.112457,286.281464 252.801743,284.693726 252.255112,283.191864 
	C238.934128,246.594116 225.664978,209.977234 212.226990,173.422424 
	C195.515457,127.962700 178.682327,82.547607 161.849472,37.132599 
	C158.503784,28.105946 154.922241,19.166714 151.455109,9.840161 
	C150.326355,7.488924 149.191940,5.484693 148.060303,3.170088 
	C148.042053,2.239810 148.021027,1.619905 148.000000,1.000000 
	C151.692902,1.000000 155.385818,1.000000 159.629150,1.306646 
	C160.475067,2.409320 160.770538,3.205348 161.052307,4.392721 
	C161.604034,6.345966 162.169434,7.907866 162.759583,9.611433 
	C162.784348,9.753099 162.958725,9.981838 162.958649,10.342702 
	C163.600662,12.230937 164.242737,13.758308 164.900970,15.459515 
	C164.917130,15.633350 165.069794,15.947376 165.091522,16.276119 
	C165.360825,16.958481 165.608383,17.312101 165.877579,17.957808 
	C166.237762,19.158701 166.576294,20.067513 166.919250,21.339703 
	C167.519791,23.007984 168.115921,24.312887 168.699677,25.689274 
	C168.687302,25.760756 168.813950,25.831556 168.841171,26.199413 
	C169.200592,27.212151 169.532791,27.857029 169.894928,28.805820 
	C170.281189,30.061499 170.637512,31.013266 170.977081,32.275497 
	C171.245300,33.116486 171.530273,33.647011 171.844452,34.141121 
	C171.873672,34.104710 171.800827,34.046295 171.857986,34.382545 
	C172.217499,35.045971 172.519867,35.373146 172.745865,35.900208 
	C172.667252,36.395435 172.749390,36.665077 172.912628,37.237789 
	C173.303497,38.327209 173.697632,39.087849 174.138367,40.192139 
	C174.729553,42.044552 175.274170,43.553322 175.893311,45.388405 
	C176.274872,46.025711 176.581894,46.336704 176.852051,46.871422 
	C176.857056,47.398903 176.954834,47.683445 177.118851,48.276886 
	C177.356934,48.968704 177.584702,49.332405 177.816345,49.993095 
	C178.162018,51.212158 178.503815,52.134243 178.858841,53.401649 
	C179.171524,54.360382 179.470993,54.973789 179.760071,55.693459 
	C179.749695,55.799721 179.880692,55.968342 179.927673,56.306984 
	C180.261230,56.987152 180.547821,57.328686 180.753067,57.680477 
	C180.671738,57.690739 180.692230,57.853397 180.718811,58.219284 
	C181.138596,59.451225 181.531815,60.317284 181.972046,61.479164 
	C182.172699,62.142246 182.326370,62.509514 182.482925,63.227001 
	C183.215668,65.275589 183.945496,66.973961 184.645050,68.738266 
	C184.614761,68.804192 184.714279,68.909790 184.724152,69.288078 
	C185.093445,70.315826 185.452866,70.965294 185.825867,71.940178 
	C186.276031,73.494789 186.712601,74.723984 187.140015,76.296204 
	C187.662704,77.628593 188.194565,78.617950 188.749313,79.945190 
	C189.480469,82.187752 190.188751,84.092430 190.890167,86.364487 
	C191.484222,88.038666 192.085144,89.345451 192.724548,90.878113 
	C192.848679,91.399048 192.969070,91.679184 193.138092,92.269180 
	C193.383698,92.951294 193.615417,93.308617 193.847168,93.895264 
	C193.907944,94.429520 194.028442,94.708656 194.225281,95.271240 
	C194.454163,95.928383 194.666458,96.276283 194.900391,96.979218 
	C194.998474,97.658203 195.041870,97.994347 195.156067,98.304398 
	C215.285812,152.957077 235.376816,207.624100 255.599976,262.242188 
	C258.825531,270.953644 262.645020,279.445190 266.231781,288.211365 
	C266.273651,288.384369 266.553833,288.601959 266.553833,288.601959 
	C266.553833,288.601959 266.908569,288.594543 267.363892,288.738586 
	C284.208740,288.849030 300.598267,288.815460 317.447754,288.883240 
	C335.594513,288.929199 353.281281,288.873749 371.430969,288.915344 
	C378.991516,289.017334 386.089264,288.997864 393.186676,289.038361 
	C396.358551,289.056427 397.973572,287.937744 396.757782,284.544556 
	C394.536346,278.344727 392.296051,272.151672 390.048004,265.575958 
	C382.636536,244.860657 375.311676,224.498978 367.830627,204.194885 
	C349.815826,155.301407 331.755493,106.424614 313.651886,57.563934 
	C308.509491,43.684776 303.155090,29.884146 297.877319,15.719641 
	C297.491425,14.599862 297.126129,13.807950 296.788940,12.722473 
	C296.536865,11.956079 296.256714,11.483251 295.922943,10.680426 
	C294.948792,8.118640 294.028229,5.886849 293.090271,3.322817 
	C293.048584,2.327051 293.024292,1.663526 293.000000,1.000000 
z"/>
<path fill="#010E35" opacity="1.000000" stroke="none" 
	d="
M292.531342,1.000000 
	C293.024292,1.663526 293.048584,2.327051 292.620850,3.398807 
	C287.112244,3.872760 282.055695,3.938483 276.602173,3.924891 
	C275.134186,3.911432 274.063232,3.977287 272.573120,3.940214 
	C270.437805,3.870594 268.721588,3.903901 266.673340,3.867201 
	C265.892700,3.836636 265.444092,3.876077 264.539307,3.817339 
	C259.723602,3.771277 255.364151,3.823393 250.672043,3.808616 
	C249.891251,3.785395 249.443100,3.829067 248.585724,3.778297 
	C246.786423,3.738221 245.396378,3.792589 243.594849,3.750077 
	C241.786285,3.727486 240.389221,3.801776 238.571014,3.784922 
	C236.435745,3.750587 234.721588,3.807396 232.595795,3.767670 
	C230.786499,3.743566 229.388840,3.815997 227.582458,3.793913 
	C225.785126,3.752422 224.396530,3.805446 222.611969,3.766037 
	C221.141037,3.734553 220.066086,3.795501 218.554993,3.762053 
	C215.747650,3.716658 213.376434,3.765659 210.671661,3.750675 
	C209.889801,3.733898 209.441528,3.781105 208.668259,3.766155 
	C207.906097,3.746132 207.468918,3.788267 206.618622,3.729464 
	C204.800735,3.688000 203.395996,3.747474 201.532288,3.712768 
	C196.052155,3.694929 191.030960,3.771271 185.612122,3.758912 
	C184.138718,3.746160 183.062973,3.822109 181.525070,3.817379 
	C175.065125,3.887094 169.067322,4.037488 162.739334,4.124653 
	C161.961426,4.041409 161.513718,4.021394 161.066010,4.001377 
	C160.770538,3.205348 160.475067,2.409320 160.089798,1.306646 
	C204.020889,1.000000 248.041794,1.000000 292.531342,1.000000 
z"/>
<path fill="#010E34" opacity="1.000000" stroke="none" 
	d="
M17.270231,4.080332 
	C16.918003,3.264981 16.565777,2.449630 16.106775,1.317139 
	C59.687561,1.000000 103.375122,1.000000 147.531342,1.000000 
	C148.021027,1.619905 148.042053,2.239810 147.603653,3.301818 
	C129.359711,3.676522 111.574707,3.494939 93.790787,3.570227 
	C70.853760,3.667332 47.917606,3.970002 24.555401,4.117460 
	C21.843229,4.060629 19.556730,4.070481 17.270231,4.080332 
z"/>
<path fill="#01113E" opacity="1.000000" stroke="none" 
	d="
M315.000000,1.000000 
	C373.354218,1.000000 431.708466,1.000000 490.523254,1.317769 
	C491.000702,2.270967 491.017578,2.906394 490.578857,3.670948 
	C481.752350,3.971306 473.381409,4.142538 464.587280,4.222723 
	C462.435455,4.104847 460.706787,4.078020 458.595459,3.909901 
	C456.227020,3.613779 454.241486,3.326834 452.255493,3.323604 
	C411.633545,3.257529 371.011536,3.214787 330.389557,3.209135 
	C328.242188,3.208836 326.094727,3.577140 323.506409,3.738624 
	C320.409576,3.661985 317.753632,3.620569 315.069794,3.149715 
	C315.027924,2.146853 315.013977,1.573426 315.000000,1.000000 
z"/>
<path fill="#030721" opacity="1.000000" stroke="none" 
	d="
M491.034454,3.541822 
	C491.017578,2.906394 491.000702,2.270967 490.991913,1.317769 
	C495.024536,1.000000 499.049103,1.000000 503.536804,1.000001 
	C503.507355,1.732338 503.014709,2.464674 501.847107,3.465189 
	C497.792908,3.669520 494.413696,3.605671 491.034454,3.541822 
z"/>
<path fill="#01113E" opacity="1.000000" stroke="none" 
	d="
M304.896210,3.869195 
	C304.930237,3.152104 304.964233,2.435014 304.999146,1.358962 
	C307.370575,1.000000 309.741119,1.000000 312.569794,1.327685 
	C313.009979,2.308959 312.992065,2.962550 312.555420,3.695460 
	C310.159637,3.876472 308.182526,3.978164 305.878662,4.023989 
	C305.333313,3.935146 305.114746,3.902170 304.896210,3.869195 
z"/>
<path fill="#061C49" opacity="1.000000" stroke="none" 
	d="
M312.974182,3.616140 
	C312.992065,2.962550 313.009979,2.308959 313.013947,1.327685 
	C313.444427,1.000000 313.888885,1.000000 314.666656,1.000000 
	C315.013977,1.573426 315.027924,2.146853 314.892822,3.276514 
	C314.485504,3.966365 314.236389,4.115238 313.739075,4.116313 
	C313.312531,3.840885 313.143341,3.728513 312.974182,3.616140 
z"/>
<path fill="#0745A6" opacity="1.000000" stroke="none" 
	d="
M491.845276,35.009155 
	C482.320221,61.268078 472.870422,87.554619 463.249512,113.778389 
	C452.995026,141.729172 442.625031,169.637909 432.192871,197.522873 
	C430.174225,202.918671 427.636475,208.120285 424.883423,213.487503 
	C424.074463,211.134949 423.547791,208.715118 423.424164,206.274872 
	C423.335785,204.529984 423.787872,202.757690 424.020996,200.590683 
	C424.431671,198.238327 424.877472,196.302170 425.194183,194.345123 
	C425.587616,191.913925 426.358856,189.397079 426.027710,187.049744 
	C425.824707,185.610901 423.991272,184.240921 422.603424,183.235748 
	C422.223297,182.960419 420.125397,183.965530 419.980957,184.634583 
	C419.096252,188.733078 416.182678,188.790863 414.333344,188.432236 
	C412.077759,190.957504 410.668396,193.993042 408.844849,194.266510 
	C405.299500,194.798187 401.803375,190.934204 397.764191,193.427963 
	C397.568573,193.548721 396.253937,192.257736 395.765778,191.441498 
	C391.164093,183.747849 386.712585,175.962479 381.985565,168.347763 
	C381.265167,167.187256 379.357361,166.763824 377.827209,165.682739 
	C373.448425,152.430603 369.050629,139.553146 365.095825,126.541046 
	C362.060516,116.554138 359.425629,106.436951 356.895660,96.307022 
	C353.132141,81.237976 349.618347,66.106575 346.307434,50.846779 
	C348.131592,48.999104 349.646637,47.306355 351.161682,45.613602 
	C348.925323,44.693584 346.719574,43.685452 344.438538,42.894394 
	C343.444611,42.549702 342.296265,42.650330 341.218048,42.548717 
	C341.025269,42.061604 340.832489,41.574490 340.639709,41.087376 
	C345.697784,40.510983 349.002502,38.331272 349.479248,33.254772 
	C349.525543,32.761951 351.122742,32.414776 352.051270,32.180016 
	C352.306732,32.686516 352.510895,33.012989 352.715057,33.339466 
	C353.040192,33.029560 353.365356,32.719654 353.690491,32.409748 
	C353.127014,32.273163 352.563507,32.136578 352.024139,31.621189 
	C353.233734,29.521000 354.419189,27.799610 355.604675,26.078222 
	C355.933075,27.768934 356.291565,29.454533 356.580139,31.152016 
	C356.799744,32.443970 356.468475,34.355377 357.203369,34.917320 
	C358.476318,35.890671 361.581177,36.813019 361.847626,36.405010 
	C365.647064,30.586584 370.516052,30.592220 376.151642,33.091900 
	C376.742920,33.354183 377.718994,32.759663 378.513550,32.551208 
	C381.224792,31.839909 383.948395,31.170731 386.638916,30.387829 
	C387.869049,30.029877 389.594666,29.787821 390.134705,28.905249 
	C393.403595,23.563259 396.697205,24.798252 400.732727,28.088007 
	C404.608002,31.247156 407.863770,29.708216 408.991394,24.765505 
	C409.178772,23.944098 409.859558,22.792858 410.542419,22.597250 
	C415.755157,21.104040 420.954620,19.141235 426.290314,18.579964 
	C442.112549,16.915588 457.984741,15.657773 473.863464,14.652949 
	C477.202301,14.441663 481.042725,15.312892 483.910156,16.969454 
	C485.734436,18.023380 486.672089,21.365175 487.083313,23.834930 
	C487.338013,25.364586 485.763214,27.149609 485.181488,28.877838 
	C483.879883,32.744644 482.685791,36.647636 481.447906,40.535889 
	C481.965729,40.766041 482.483582,40.996197 483.001404,41.226349 
	C483.706665,40.483959 485.024017,39.737858 485.019531,38.999767 
	C484.986359,33.527172 487.936798,33.530285 491.845276,35.009155 
M423.272003,176.276886 
	C423.518890,176.594162 423.765778,176.911423 424.012665,177.228683 
	C424.211823,177.010345 424.410980,176.792007 424.610107,176.573669 
	C424.234650,176.401123 423.859192,176.228577 423.272003,176.276886 
M426.990021,180.959915 
	C426.990021,180.959915 427.032074,180.965317 426.990021,180.959915 
z"/>
<path fill="#0541A3" opacity="1.000000" stroke="none" 
	d="
M276.999146,4.004202 
	C282.055695,3.938483 287.112244,3.872760 292.638245,3.731048 
	C294.028229,5.886849 294.948792,8.118640 295.903473,10.869637 
	C296.212036,11.931238 296.486450,12.473635 296.760834,13.016035 
	C297.126129,13.807950 297.491425,14.599862 297.787567,16.024189 
	C297.673096,18.979517 297.145294,21.415438 297.658722,23.607489 
	C301.784668,41.223339 304.867615,59.211681 310.633453,76.287926 
	C321.812927,109.397369 334.348480,142.056671 346.743500,174.742706 
	C350.009033,183.354004 354.879730,191.350113 358.886230,199.689789 
	C360.728149,203.523895 362.408600,207.450745 363.906036,211.431915 
	C366.702545,218.866989 369.355225,226.357239 371.985992,233.853226 
	C374.181824,240.109818 376.475372,246.345673 378.306549,252.711288 
	C379.317688,256.226196 377.147797,257.899628 373.803009,256.949310 
	C371.242462,256.221832 368.917725,254.664246 365.357452,252.922852 
	C366.341095,254.892700 366.586823,256.334106 367.425140,256.904419 
	C371.795013,259.877441 372.090424,262.646454 367.421539,265.144806 
	C368.355133,268.320557 369.189178,271.157837 369.818207,274.244690 
	C369.401245,275.859985 368.539459,278.018738 369.082214,278.463501 
	C372.773682,281.488586 371.422516,285.191742 370.968079,288.818329 
	C353.281281,288.873749 335.594513,288.929199 317.346802,288.579224 
	C314.583374,285.542603 307.256012,283.370850 304.461731,284.410126 
	C303.610748,284.726624 302.187378,285.100494 301.749207,284.685181 
	C297.045837,280.227386 291.232239,282.586853 285.991394,282.201416 
	C276.165192,281.478760 270.773773,278.270966 271.003387,268.482697 
	C271.030609,267.321594 270.997742,266.159088 271.081085,264.624146 
	C272.440430,258.712982 277.736328,255.554184 283.640106,255.980118 
	C287.853394,256.284088 292.169525,255.796066 296.386841,255.251541 
	C301.828186,254.548965 307.216766,253.437347 313.757355,252.306656 
	C315.755859,248.567108 318.737640,250.873871 320.653717,252.805298 
	C324.042328,252.499191 326.465057,251.750519 328.666016,252.168869 
	C341.371582,254.583755 348.335388,247.280136 348.986389,235.542450 
	C349.238617,230.994919 347.737732,226.220825 346.394379,221.742233 
	C343.919830,213.492218 340.979675,205.381531 338.215118,197.219009 
	C337.311279,194.550369 336.289185,191.920670 335.428497,189.238708 
	C333.908844,184.503433 332.533234,179.721512 330.984253,174.996185 
	C329.022095,169.010391 326.912109,163.073227 324.928131,157.094421 
	C321.166107,145.757217 317.594269,134.354340 313.655457,123.079330 
	C311.433533,116.718971 308.015808,110.727905 306.261536,104.265167 
	C304.178162,96.589912 301.319183,89.505997 296.541748,83.150200 
	C295.490021,81.751007 294.836884,79.974251 294.308441,78.275475 
	C293.106476,74.411415 292.103333,70.485718 291.004730,66.589203 
	C290.378296,64.367493 289.240906,62.171597 289.158875,59.933834 
	C288.622559,45.301323 283.178253,32.977654 273.056305,22.371979 
	C271.011902,20.229881 270.966217,16.180202 270.399475,13.008821 
	C271.867828,13.003617 272.935760,12.999586 274.335785,12.937628 
	C276.725800,12.223083 278.783691,11.566463 280.841583,10.909842 
	C279.825348,9.015007 278.815460,7.116699 277.787964,5.227991 
	C277.556671,4.802849 277.263733,4.411242 276.999146,4.004202 
z"/>
<path fill="#0443A9" opacity="1.000000" stroke="none" 
	d="
M24.981075,4.184142 
	C47.917606,3.970002 70.853760,3.667332 93.790787,3.570227 
	C111.574707,3.494939 129.359711,3.676522 147.600891,3.612191 
	C149.191940,5.484693 150.326355,7.488924 151.336639,10.281265 
	C151.025742,13.185458 150.866959,15.304465 150.646423,17.417027 
	C150.157242,22.103504 149.636337,26.786671 149.129791,31.471340 
	C148.750381,34.980133 148.373215,38.489162 147.671768,41.889507 
	C146.080429,40.188286 144.178345,38.776638 143.662430,36.969303 
	C142.071915,31.397486 134.573196,28.734980 130.585602,33.012779 
	C127.605621,36.209644 125.491508,35.557724 123.270950,32.803696 
	C121.334015,30.401442 119.223488,30.012680 116.250191,30.567682 
	C111.432823,31.466908 106.431114,32.874485 102.075462,28.647442 
	C101.405243,27.997021 99.112572,28.997398 97.575653,29.265291 
	C94.033607,29.882687 88.833199,32.295414 87.258965,30.822729 
	C82.038673,25.939196 78.147415,28.350353 73.360336,30.787212 
	C71.139481,31.917732 68.157043,31.541656 65.523476,31.877005 
	C64.454330,32.013145 63.394833,32.224945 62.330944,32.402321 
	C62.764191,32.716885 63.197433,33.031452 63.630676,33.346016 
	C62.251919,36.643677 60.657360,39.872257 59.571728,43.263744 
	C58.870514,45.454327 58.914818,47.883553 58.550964,50.799301 
	C63.129745,49.589928 66.220772,48.773506 69.794533,47.829586 
	C69.366165,48.956909 69.314522,49.298023 69.132126,49.540974 
	C67.361519,51.899422 65.567245,54.240086 63.783138,56.588417 
	C60.846684,60.453537 63.981049,62.149578 66.442963,64.113731 
	C66.655251,64.283104 66.693810,64.720116 66.737984,65.043076 
	C67.983536,74.149010 69.219414,83.256264 70.576820,93.246033 
	C69.688904,92.840256 70.139069,93.233131 70.572556,93.215508 
	C75.607307,93.010788 76.984818,94.345520 73.978767,99.184784 
	C71.547829,103.098228 73.032135,107.569382 76.919571,109.914619 
	C79.963455,111.750961 80.596878,113.966499 80.183479,117.425301 
	C79.830856,120.375534 79.918358,124.082108 81.422050,126.416420 
	C85.660233,132.995682 86.936615,140.325668 88.566208,147.673553 
	C89.554924,152.131714 90.655716,156.646469 92.420639,160.834732 
	C96.602753,170.759140 100.963379,180.628387 105.796265,190.246368 
	C107.264717,193.168762 111.627625,194.812042 112.639038,197.740768 
	C113.706253,200.831100 111.675354,204.868698 112.237770,208.288544 
	C112.871475,212.141907 114.552582,215.947266 116.414650,219.433487 
	C117.804985,222.036514 120.268364,224.050781 122.131371,226.423447 
	C123.089203,227.643295 124.269859,228.994507 124.499641,230.423111 
	C125.233482,234.985703 125.659096,239.605042 126.031174,244.216400 
	C126.337608,248.014175 128.413193,248.588928 131.535828,247.594925 
	C133.208466,247.062500 134.866013,246.482605 136.530365,245.924149 
	C136.698410,246.356552 136.866455,246.788956 137.034500,247.221359 
	C135.715942,248.131256 134.017029,248.781311 133.173706,250.015839 
	C132.083511,251.611771 130.910095,253.776428 131.141235,255.514130 
	C131.571091,258.746002 132.990997,261.846222 133.787567,265.267212 
	C130.177490,268.395630 129.941925,272.038025 130.673157,275.897583 
	C128.568863,274.864197 126.787445,273.931549 124.943787,272.608765 
	C119.268860,255.848053 113.908234,239.385681 107.986130,223.127853 
	C98.413383,196.848022 88.464973,170.705109 78.687050,144.499939 
	C67.107880,113.467377 55.671993,82.380501 43.914932,51.415531 
	C37.895157,35.561050 31.310457,19.921068 24.981075,4.184142 
z"/>
<path fill="#06409D" opacity="1.000000" stroke="none" 
	d="
M147.995056,41.998089 
	C148.373215,38.489162 148.750381,34.980133 149.129791,31.471340 
	C149.636337,26.786671 150.157242,22.103504 150.646423,17.417027 
	C150.866959,15.304465 151.025742,13.185458 151.330994,10.628271 
	C154.922241,19.166714 158.503784,28.105946 161.849472,37.132599 
	C178.682327,82.547607 195.515457,127.962700 212.226990,173.422424 
	C225.664978,209.977234 238.934128,246.594116 252.255112,283.191864 
	C252.801743,284.693726 253.112457,286.281464 253.824539,288.901581 
	C248.352325,288.901581 243.612961,288.901581 238.354218,288.639221 
	C237.196136,288.488007 236.557434,288.599213 235.918732,288.710388 
	C234.823029,288.782715 233.727310,288.855072 232.246658,288.468750 
	C231.045990,285.879852 230.846985,282.803741 229.299973,281.795044 
	C224.476028,278.649780 219.097107,276.368286 214.030182,273.576141 
	C212.266144,272.604065 209.480133,271.124573 209.475357,269.868042 
	C209.467941,267.916901 211.472366,265.974945 212.565704,263.996857 
	C213.315689,262.639984 214.934402,260.670197 214.507599,259.930328 
	C211.341400,254.441727 212.809235,248.904694 213.929871,243.417847 
	C214.558395,240.340485 214.108871,238.177475 211.011597,236.664398 
	C211.010925,235.887772 211.010406,235.443985 211.315079,234.941818 
	C213.435684,234.264587 216.518112,235.100327 215.898071,231.559631 
	C215.045044,226.688416 213.978409,221.854599 212.945480,216.617126 
	C212.591034,214.151474 212.294403,212.073486 211.941116,209.641129 
	C211.257233,207.525452 210.629974,205.764114 209.897522,203.655609 
	C209.194290,201.204544 208.596252,199.100677 207.905212,196.670868 
	C206.877182,194.896622 205.942108,193.448334 204.943466,191.615952 
	C204.524811,189.776398 204.322418,188.262619 203.792236,186.873993 
	C191.865768,155.636108 179.914673,124.407578 167.903580,93.202171 
	C167.449631,92.022827 166.553162,90.514565 165.513428,90.146309 
	C160.996017,88.546303 159.936584,85.004387 159.291138,80.848732 
	C159.025543,79.138680 157.775681,77.581802 156.975174,75.954445 
	C155.015503,71.970604 152.259918,68.172539 151.275421,63.960617 
	C149.596268,56.776672 149.029266,49.332779 147.995056,41.998089 
z"/>
<path fill="#0844AD" opacity="1.000000" stroke="none" 
	d="
M270.992737,264.997253 
	C270.997742,266.159088 271.030609,267.321594 271.003387,268.482697 
	C270.773773,278.270966 276.165192,281.478760 285.991394,282.201416 
	C291.232239,282.586853 297.045837,280.227386 301.749207,284.685181 
	C302.187378,285.100494 303.610748,284.726624 304.461731,284.410126 
	C307.256012,283.370850 314.583374,285.542603 316.886871,288.477844 
	C300.598267,288.815460 284.208740,288.849030 267.265350,288.622314 
	C266.557953,288.221466 266.384094,288.113586 266.189911,288.038391 
	C262.645020,279.445190 258.825531,270.953644 255.599976,262.242188 
	C235.376816,207.624100 215.285812,152.957077 195.156067,98.304398 
	C195.041870,97.994347 194.998474,97.658203 194.831818,96.684525 
	C194.563980,95.677193 194.386322,95.319595 194.208679,94.962006 
	C194.028442,94.708656 193.907944,94.429520 193.763290,93.592316 
	C193.494324,92.688164 193.309265,92.316284 193.124207,91.944397 
	C192.969070,91.679184 192.848679,91.399048 192.689606,90.510643 
	C192.043137,88.610565 191.470093,87.303833 190.897034,85.997101 
	C190.188751,84.092430 189.480469,82.187752 188.707275,79.605392 
	C188.144638,77.936211 187.646896,76.944702 187.149170,75.953186 
	C186.712601,74.723984 186.276031,73.494789 185.736832,71.582260 
	C185.327560,70.235886 185.020920,69.572838 184.714279,68.909790 
	C184.714279,68.909790 184.614761,68.804192 184.632538,68.365242 
	C183.926895,66.243118 183.203461,64.559952 182.480026,62.876781 
	C182.326370,62.509514 182.172699,62.142246 181.935272,61.124081 
	C181.465057,59.599918 181.078644,58.726658 180.692230,57.853397 
	C180.692230,57.853397 180.671738,57.690739 180.622681,57.380653 
	C180.342651,56.703159 180.111679,56.335751 179.880692,55.968342 
	C179.880692,55.968342 179.749695,55.799721 179.701218,55.355816 
	C179.383713,54.293381 179.114670,53.674850 178.845627,53.056320 
	C178.503815,52.134243 178.162018,51.212158 177.734802,49.686634 
	C177.469101,48.705051 177.288818,48.326908 177.108521,47.948769 
	C176.954834,47.683445 176.857056,47.398903 176.700638,46.589298 
	C176.330307,45.742996 176.074539,45.402542 175.818771,45.062092 
	C175.274170,43.553322 174.729553,42.044552 174.106384,39.873322 
	C173.657181,38.443581 173.286530,37.676296 172.915894,36.909012 
	C172.749390,36.665077 172.667252,36.395435 172.604797,35.606102 
	C172.293655,34.756836 172.047241,34.401566 171.800827,34.046295 
	C171.800827,34.046295 171.873672,34.104710 171.794647,33.847328 
	C171.475021,33.048306 171.234421,32.506668 170.993835,31.965031 
	C170.637512,31.013266 170.281189,30.061499 169.825714,28.449619 
	C169.422348,27.136858 169.118149,26.484209 168.813950,25.831558 
	C168.813950,25.831556 168.687302,25.760756 168.689850,25.315784 
	C168.099884,23.572653 167.507339,22.274488 166.914810,20.976322 
	C166.576294,20.067513 166.237762,19.158701 165.781525,17.654657 
	C165.465820,16.688740 165.267807,16.318056 165.069794,15.947374 
	C165.069794,15.947376 164.917130,15.633350 164.911194,15.084177 
	C164.256409,13.017283 163.607559,11.499562 162.958710,9.981840 
	C162.958725,9.981838 162.784348,9.753099 162.804626,9.171316 
	C162.906448,7.122317 162.987991,5.655099 163.069519,4.187882 
	C169.067322,4.037488 175.065125,3.887094 181.637680,4.093692 
	C183.962051,7.296266 185.054535,6.004085 186.009766,3.847612 
	C191.030960,3.771271 196.052155,3.694929 201.634369,3.983738 
	C204.156662,7.432842 205.582108,5.518771 207.031754,3.830402 
	C207.468918,3.788267 207.906097,3.746132 208.731552,3.974157 
	C209.748306,4.101099 210.376770,3.957880 211.005234,3.814660 
	C213.376434,3.765659 215.747650,3.716658 218.665710,4.041835 
	C220.925217,7.276681 222.037201,6.048289 223.007950,3.858469 
	C224.396530,3.805446 225.785126,3.752422 227.709198,4.089234 
	C230.251953,7.525098 231.743103,6.573076 233.007431,3.864206 
	C234.721588,3.807396 236.435745,3.750587 238.697449,4.081242 
	C241.259415,7.533868 242.747208,6.566029 244.006317,3.846957 
	C245.396378,3.792589 246.786423,3.738221 248.649200,3.983060 
	C249.749512,4.146681 250.377106,4.011095 251.004700,3.875510 
	C255.364151,3.823393 259.723602,3.771277 264.603058,4.019138 
	C265.750488,4.191811 266.377960,4.064508 267.005402,3.937206 
	C268.721588,3.903901 270.437805,3.870594 272.620850,4.289561 
	C273.393036,7.493076 273.698334,10.244315 274.003662,12.995555 
	C272.935760,12.999586 271.867828,13.003617 270.002838,13.095806 
	C262.106293,13.723540 254.990585,14.851510 247.911469,14.655820 
	C238.777710,14.403330 229.693542,11.777753 220.542694,14.834908 
	C218.883011,15.389380 216.913681,14.969812 215.095245,15.105873 
	C210.937759,15.416949 206.767731,15.656055 202.635239,16.180197 
	C198.003860,16.767614 193.442612,19.864229 189.367126,14.024242 
	C187.487259,11.330463 183.226837,10.720299 179.745789,12.915601 
	C176.008575,15.272453 178.286072,18.335760 179.208588,20.914244 
	C183.128998,31.872217 187.399384,42.704948 191.322052,53.662148 
	C197.476379,70.853088 203.345139,88.146553 209.541306,105.322128 
	C214.051483,117.824188 218.954285,130.184021 223.571869,142.648087 
	C227.786972,154.025742 231.763321,165.492142 236.010406,176.857559 
	C240.773422,189.603668 245.779236,202.258865 250.575531,214.992737 
	C256.317627,230.237564 261.903168,245.541534 267.698517,260.765839 
	C268.306458,262.362885 269.871674,263.595551 270.992737,264.997253 
z"/>
<path fill="#0444AA" opacity="1.000000" stroke="none" 
	d="
M352.024139,31.621193 
	C351.122742,32.414776 349.525543,32.761951 349.479248,33.254772 
	C349.002502,38.331272 345.697784,40.510983 340.639709,41.087376 
	C340.832489,41.574490 341.025269,42.061604 341.218048,42.548717 
	C342.296265,42.650330 343.444611,42.549702 344.438538,42.894394 
	C346.719574,43.685452 348.925323,44.693584 351.161682,45.613602 
	C349.646637,47.306355 348.131592,48.999104 346.101257,51.044186 
	C339.619080,57.652042 338.656250,64.718262 341.986725,72.589806 
	C342.395386,73.555687 342.015350,74.855270 341.825958,75.695999 
	C339.279694,69.396698 336.874268,63.414787 334.543304,57.404011 
	C327.678497,39.701935 320.843231,21.988415 313.996399,4.279371 
	C314.236389,4.115238 314.485504,3.966365 314.920715,3.705950 
	C317.753632,3.620569 320.409576,3.661985 323.818848,3.897627 
	C326.864319,4.369048 329.156006,4.883550 331.448700,4.888151 
	C371.339233,4.968209 411.229919,5.003972 451.120514,4.975123 
	C453.739960,4.973228 456.358948,4.373069 458.978149,4.051191 
	C460.706787,4.078020 462.435455,4.104847 464.681213,4.542882 
	C466.783905,6.138566 468.222931,7.968637 469.986481,8.368876 
	C473.332855,9.128351 476.862244,9.112828 480.320862,9.339181 
	C485.756165,9.694901 488.975372,12.662188 491.079498,17.561234 
	C492.136841,20.023031 494.173431,22.064240 495.767212,24.295643 
	C495.767212,24.295645 495.788147,24.585155 495.372681,24.846352 
	C492.373657,26.327658 489.787262,27.546934 493.377838,30.556553 
	C492.986877,31.847872 492.595917,33.139191 492.025116,34.719830 
	C487.936798,33.530285 484.986359,33.527172 485.019531,38.999767 
	C485.024017,39.737858 483.706665,40.483959 483.001404,41.226349 
	C482.483582,40.996197 481.965729,40.766041 481.447906,40.535889 
	C482.685791,36.647636 483.879883,32.744644 485.181488,28.877838 
	C485.763214,27.149609 487.338013,25.364586 487.083313,23.834930 
	C486.672089,21.365175 485.734436,18.023380 483.910156,16.969454 
	C481.042725,15.312892 477.202301,14.441663 473.863464,14.652949 
	C457.984741,15.657773 442.112549,16.915588 426.290314,18.579964 
	C420.954620,19.141235 415.755157,21.104040 410.542419,22.597250 
	C409.859558,22.792858 409.178772,23.944098 408.991394,24.765505 
	C407.863770,29.708216 404.608002,31.247156 400.732727,28.088007 
	C396.697205,24.798252 393.403595,23.563259 390.134705,28.905249 
	C389.594666,29.787821 387.869049,30.029877 386.638916,30.387829 
	C383.948395,31.170731 381.224792,31.839909 378.513550,32.551208 
	C377.718994,32.759663 376.742920,33.354183 376.151642,33.091900 
	C370.516052,30.592220 365.647064,30.586584 361.847626,36.405010 
	C361.581177,36.813019 358.476318,35.890671 357.203369,34.917320 
	C356.468475,34.355377 356.799744,32.443970 356.580139,31.152016 
	C356.291565,29.454533 355.933075,27.768934 355.604675,26.078222 
	C354.419189,27.799610 353.233734,29.521000 352.024139,31.621193 
M377.608643,29.391916 
	C377.573273,28.811563 377.537903,28.231211 377.502533,27.650856 
	C376.922729,27.756887 376.342896,27.862919 375.763092,27.968948 
	C376.242950,28.456406 376.722809,28.943861 377.608643,29.391916 
z"/>
<path fill="#0A44B3" opacity="1.000000" stroke="none" 
	d="
M24.555403,4.117460 
	C31.310457,19.921068 37.895157,35.561050 43.914932,51.415531 
	C55.671993,82.380501 67.107880,113.467377 78.687050,144.499939 
	C88.464973,170.705109 98.413383,196.848022 107.986130,223.127853 
	C113.908234,239.385681 119.268860,255.848053 124.982803,273.000458 
	C126.054008,278.688507 127.023949,283.594727 127.993896,288.500916 
	C127.205421,288.572021 126.416939,288.643127 124.993347,288.559265 
	C124.016396,288.321198 123.674545,288.238129 123.332703,288.155090 
	C122.332268,287.076752 120.880119,286.169128 120.398483,284.894745 
	C111.807800,262.164368 103.289871,239.406113 94.847443,216.620087 
	C83.049072,184.776398 71.298470,152.914902 59.578922,121.042091 
	C49.352650,93.230446 39.240219,65.376892 28.988789,37.574570 
	C25.251177,27.438002 21.242775,17.401440 17.412180,7.298677 
	C17.134588,6.566559 17.301289,5.665983 17.265825,4.462031 
	C19.556730,4.070481 21.843229,4.060629 24.555403,4.117460 
z"/>
<path fill="#073F9B" opacity="1.000000" stroke="none" 
	d="
M370.023254,273.995087 
	C369.189178,271.157837 368.355133,268.320557 367.421539,265.144806 
	C372.090424,262.646454 371.795013,259.877441 367.425140,256.904419 
	C366.586823,256.334106 366.341095,254.892700 365.357452,252.922852 
	C368.917725,254.664246 371.242462,256.221832 373.803009,256.949310 
	C377.147797,257.899628 379.317688,256.226196 378.306549,252.711288 
	C376.475372,246.345673 374.181824,240.109818 371.985992,233.853226 
	C369.355225,226.357239 366.702545,218.866989 363.906036,211.431915 
	C362.408600,207.450745 360.728149,203.523895 358.886230,199.689789 
	C354.879730,191.350113 350.009033,183.354004 346.743500,174.742706 
	C334.348480,142.056671 321.812927,109.397369 310.633453,76.287926 
	C304.867615,59.211681 301.784668,41.223339 297.658722,23.607489 
	C297.145294,21.415438 297.673096,18.979517 297.808167,16.352055 
	C303.155090,29.884146 308.509491,43.684776 313.651886,57.563934 
	C331.755493,106.424614 349.815826,155.301407 367.830627,204.194885 
	C375.311676,224.498978 382.636536,244.860657 389.966400,265.845459 
	C389.449371,267.725159 388.998352,268.955566 388.267914,270.948181 
	C385.719360,267.717346 383.864288,265.365631 382.009186,263.013916 
	C381.526886,262.836090 381.044617,262.658264 380.562317,262.480469 
	C379.760712,269.261505 376.685974,273.575378 370.023254,273.995087 
z"/>
<path fill="#0541A6" opacity="1.000000" stroke="none" 
	d="
M211.011734,236.997223 
	C214.108871,238.177475 214.558395,240.340485 213.929871,243.417847 
	C212.809235,248.904694 211.341400,254.441727 214.507599,259.930328 
	C214.934402,260.670197 213.315689,262.639984 212.565704,263.996857 
	C211.472366,265.974945 209.467941,267.916901 209.475357,269.868042 
	C209.480133,271.124573 212.266144,272.604065 214.030182,273.576141 
	C219.097107,276.368286 224.476028,278.649780 229.299973,281.795044 
	C230.846985,282.803741 231.045990,285.879852 231.926178,288.379211 
	C221.967331,288.811890 211.944016,288.875488 201.353485,288.531006 
	C200.182068,287.369202 199.694183,286.109558 198.955688,285.939697 
	C191.352051,284.191193 183.776825,281.897278 176.059509,281.160095 
	C163.238312,279.935455 150.309647,279.872925 137.449051,278.988922 
	C135.239960,278.837067 133.144150,277.037048 130.996017,275.998383 
	C129.941925,272.038025 130.177490,268.395630 134.135101,265.161957 
	C139.758377,264.135498 144.870789,263.724945 149.872101,262.746399 
	C153.747696,261.988098 157.479645,260.503815 161.284897,259.374023 
	C163.074432,258.842712 164.866058,258.091248 166.692642,257.966858 
	C169.243103,257.793213 171.864456,258.443512 174.389618,258.158203 
	C181.241562,257.384033 188.058807,256.302704 195.700058,255.229324 
	C195.969513,255.401306 197.148819,256.154022 198.909515,257.277832 
	C199.566299,255.311325 199.846497,253.680328 200.636002,252.352051 
	C201.301407,251.232559 202.412338,249.965393 203.577911,249.624298 
	C209.937958,247.763092 210.593491,245.872467 206.458359,240.561279 
	C206.093399,240.092514 206.021210,239.395767 205.660797,238.372772 
	C207.610092,237.871658 209.310913,237.434433 211.011734,236.997223 
z"/>
<path fill="#0843AA" opacity="1.000000" stroke="none" 
	d="
M313.739075,4.116315 
	C320.843231,21.988415 327.678497,39.701935 334.543304,57.404011 
	C336.874268,63.414787 339.279694,69.396698 341.826111,76.070839 
	C342.001556,77.499565 342.002014,78.249245 342.077759,79.339592 
	C343.435272,81.454086 344.717468,83.227921 345.999695,85.334641 
	C345.999817,86.111382 345.999908,86.555229 345.949432,87.274826 
	C346.266174,89.033791 346.633484,90.517014 347.116089,92.254929 
	C347.487640,93.006500 347.743805,93.503372 348.115448,94.254959 
	C348.487427,95.006577 348.743927,95.503479 349.085754,96.369827 
	C349.447876,98.492584 349.724670,100.245888 350.090271,102.302856 
	C350.453217,103.404182 350.727325,104.201843 351.201324,105.199615 
	C351.934540,105.932945 352.467865,106.466179 353.171326,107.227577 
	C353.894073,107.970917 354.446686,108.486076 354.999329,109.376053 
	C354.999542,110.500465 354.999756,111.250084 355.001587,112.195831 
	C355.335419,112.927971 355.667725,113.463982 356.154724,114.332138 
	C358.207153,121.109589 360.104797,127.554901 362.113190,134.305328 
	C363.149292,135.740280 364.074646,136.870132 365.034973,138.392517 
	C365.380524,140.856750 365.691162,142.928452 366.039307,145.364395 
	C367.051208,147.485764 368.025604,149.242905 369.088013,151.369202 
	C370.451874,156.825790 371.727753,161.913239 373.072510,167.371994 
	C377.093384,180.829605 381.045380,193.915909 384.724976,207.169617 
	C383.305603,207.898285 382.158691,208.459549 380.976135,208.655853 
	C379.942810,206.864212 378.945160,205.437485 377.947510,204.010773 
	C374.462830,194.912323 370.849396,185.860794 367.515198,176.707550 
	C350.766113,130.726669 334.088867,84.719620 317.397980,38.717567 
	C317.116913,37.942936 316.981171,37.115585 316.672974,35.708366 
	C316.293671,34.798790 316.018982,34.493687 315.744324,34.188583 
	C314.659271,31.269737 313.574188,28.350897 312.431702,24.741043 
	C311.904266,23.044691 311.434204,22.039352 310.964172,21.034012 
	C310.617920,20.099850 310.271637,19.165689 309.806702,17.657860 
	C309.507629,16.749136 309.327209,16.414078 309.146790,16.079021 
	C308.819550,15.233953 308.492310,14.388884 308.201050,12.980799 
	C307.829956,11.620832 307.422821,10.823883 307.015717,10.026931 
	C306.549347,8.892219 306.082947,7.757508 305.667053,5.979854 
	C305.880188,4.917893 306.042816,4.498876 306.205444,4.079857 
	C308.182526,3.978164 310.159637,3.876472 312.555450,3.695460 
	C313.143341,3.728513 313.312531,3.840885 313.739075,4.116315 
z"/>
<path fill="#0740AD" opacity="1.000000" stroke="none" 
	d="
M130.673157,275.897583 
	C133.144150,277.037048 135.239960,278.837067 137.449051,278.988922 
	C150.309647,279.872925 163.238312,279.935455 176.059509,281.160095 
	C183.776825,281.897278 191.352051,284.191193 198.955688,285.939697 
	C199.694183,286.109558 200.182068,287.369202 200.894119,288.431763 
	C176.971100,288.730988 152.940277,288.721405 128.451660,288.606354 
	C127.023949,283.594727 126.054008,278.688507 125.045044,273.390625 
	C126.787445,273.931549 128.568863,274.864197 130.673157,275.897583 
z"/>
<path fill="#023A99" opacity="1.000000" stroke="none" 
	d="
M369.818207,274.244690 
	C376.685974,273.575378 379.760712,269.261505 380.562317,262.480469 
	C381.044617,262.658264 381.526886,262.836090 382.009186,263.013916 
	C383.864288,265.365631 385.719360,267.717346 388.267914,270.948181 
	C388.998352,268.955566 389.449371,267.725159 389.981995,266.225281 
	C392.296051,272.151672 394.536346,278.344727 396.757782,284.544556 
	C397.973572,287.937744 396.358551,289.056427 393.186676,289.038361 
	C386.089264,288.997864 378.991516,289.017334 371.430969,288.915344 
	C371.422516,285.191742 372.773682,281.488586 369.082214,278.463501 
	C368.539459,278.018738 369.401245,275.859985 369.818207,274.244690 
z"/>
<path fill="#0040AF" opacity="1.000000" stroke="none" 
	d="
M396.254150,254.030701 
	C395.574554,252.229919 394.894989,250.429138 394.204956,248.083801 
	C393.907837,247.022522 393.621155,246.505814 393.334473,245.989120 
	C392.988586,245.175598 392.642670,244.362091 392.292664,242.910858 
	C392.774811,238.835037 388.189392,234.557693 394.405762,231.999481 
	C396.209808,232.002548 397.596802,232.004929 399.091827,232.349823 
	C401.465759,236.131561 403.731628,239.570786 406.195587,243.289856 
	C407.677795,246.740646 408.961884,249.911560 410.245972,253.082489 
	C409.130981,257.170563 408.015991,261.258636 406.532806,265.260254 
	C405.093048,261.146576 402.117981,261.447784 399.018768,262.031372 
	C398.911774,261.718353 398.804749,261.405334 398.727264,260.499329 
	C397.922546,257.947784 397.088348,255.989243 396.254150,254.030701 
z"/>
<path fill="#0344AC" opacity="1.000000" stroke="none" 
	d="
M495.938110,24.003771 
	C494.173431,22.064240 492.136841,20.023031 491.079498,17.561234 
	C488.975372,12.662188 485.756165,9.694901 480.320862,9.339181 
	C476.862244,9.112828 473.332855,9.128351 469.986481,8.368876 
	C468.222931,7.968637 466.783905,6.138566 465.104431,4.633929 
	C473.381409,4.142538 481.752350,3.971306 490.578857,3.670948 
	C494.413696,3.605671 497.792908,3.669520 501.617828,3.604320 
	C502.069519,4.369527 502.075531,5.263783 501.825226,6.855141 
	C501.437134,7.932055 501.305328,8.311868 501.173553,8.691679 
	C499.485382,13.698418 497.797211,18.705158 495.938110,24.003771 
z"/>
<path fill="#0442A9" opacity="1.000000" stroke="none" 
	d="
M410.530945,252.859238 
	C408.961884,249.911560 407.677795,246.740646 406.377686,242.987976 
	C409.954407,233.129684 413.399048,223.791870 417.201599,214.602173 
	C419.134949,209.929779 421.712463,205.523956 423.998779,200.997620 
	C423.787872,202.757690 423.335785,204.529984 423.424164,206.274872 
	C423.547791,208.715118 424.074463,211.134949 424.677582,213.783539 
	C421.601166,223.229630 418.291168,232.461243 414.943054,241.679031 
	C413.610748,245.347107 412.194153,248.984573 410.530945,252.859238 
z"/>
<path fill="#0648B2" opacity="1.000000" stroke="none" 
	d="
M393.988708,231.998779 
	C388.189392,234.557693 392.774811,238.835037 392.277527,242.576294 
	C388.160645,232.186264 384.054779,221.493073 380.143280,210.250336 
	C380.563477,209.475266 380.788177,209.248596 381.011749,209.020798 
	C382.158691,208.459549 383.305603,207.898285 384.920166,207.473129 
	C388.254791,215.739090 391.121735,223.868927 393.988708,231.998779 
M389.040161,228.989868 
	C389.040161,228.989868 389.034760,229.034180 389.040161,228.989868 
M384.028259,216.024384 
	C384.028259,216.024384 383.992462,216.051834 384.028259,216.024384 
z"/>
<path fill="#0648B2" opacity="1.000000" stroke="none" 
	d="
M399.024902,262.416565 
	C402.117981,261.447784 405.093048,261.146576 406.290405,265.558777 
	C405.728363,268.359833 405.040558,270.775940 404.352753,273.192017 
	C403.732727,273.222565 403.112732,273.253143 402.492737,273.283691 
	C401.338806,269.789734 400.184906,266.295746 399.024902,262.416565 
z"/>
<path fill="#0745A6" opacity="1.000000" stroke="none" 
	d="
M493.574677,30.229862 
	C489.787262,27.546934 492.373657,26.327658 495.283112,24.960564 
	C494.996552,26.510111 494.384033,28.206640 493.574677,30.229862 
z"/>
<path fill="#0442A9" opacity="1.000000" stroke="none" 
	d="
M380.976135,208.655853 
	C380.788177,209.248596 380.563477,209.475266 380.163513,209.865662 
	C379.989410,210.030518 380.011688,210.003433 379.974640,210.010361 
	C379.937592,210.017288 379.952087,209.982758 379.952087,209.982758 
	C379.281219,208.294846 378.610382,206.606934 377.943481,204.464890 
	C378.945160,205.437485 379.942810,206.864212 380.976135,208.655853 
z"/>
<path fill="#0648B2" opacity="1.000000" stroke="none" 
	d="
M396.307861,254.391418 
	C397.088348,255.989243 397.922546,257.947784 398.844238,260.274475 
	C398.074982,258.679169 397.218292,256.715637 396.307861,254.391418 
z"/>
<path fill="#0E3C8A" opacity="1.000000" stroke="none" 
	d="
M162.739334,4.124654 
	C162.987991,5.655099 162.906448,7.122317 162.779877,9.029650 
	C162.169434,7.907866 161.604034,6.345966 161.052307,4.392722 
	C161.513718,4.021394 161.961426,4.041409 162.739334,4.124654 
z"/>
<path fill="#0E3C8A" opacity="1.000000" stroke="none" 
	d="
M182.482925,63.227001 
	C183.203461,64.559952 183.926895,66.243118 184.662842,68.299316 
	C183.945496,66.973961 183.215668,65.275589 182.482925,63.227001 
z"/>
<path fill="#0E3C8A" opacity="1.000000" stroke="none" 
	d="
M162.958649,10.342704 
	C163.607559,11.499562 164.256409,13.017283 164.895020,14.910342 
	C164.242737,13.758308 163.600662,12.230937 162.958649,10.342704 
z"/>
<path fill="#0E3C8A" opacity="1.000000" stroke="none" 
	d="
M190.890167,86.364487 
	C191.470093,87.303833 192.043137,88.610565 192.651123,90.284775 
	C192.085144,89.345451 191.484222,88.038666 190.890167,86.364487 
z"/>
<path fill="#0E3C8A" opacity="1.000000" stroke="none" 
	d="
M166.919250,21.339703 
	C167.507339,22.274488 168.099884,23.572653 168.702240,25.244303 
	C168.115921,24.312887 167.519791,23.007984 166.919250,21.339703 
z"/>
<path fill="#02398E" opacity="1.000000" stroke="none" 
	d="
M307.009338,10.343316 
	C307.422821,10.823883 307.829956,11.620832 308.164551,12.641594 
	C307.728973,12.130170 307.365936,11.394935 307.009338,10.343316 
z"/>
<path fill="#0E3C8A" opacity="1.000000" stroke="none" 
	d="
M187.140015,76.296204 
	C187.646896,76.944702 188.144638,77.936211 188.684418,79.267517 
	C188.194565,78.617950 187.662704,77.628593 187.140015,76.296204 
z"/>
<path fill="#02398E" opacity="1.000000" stroke="none" 
	d="
M310.961548,21.373947 
	C311.434204,22.039352 311.904266,23.044691 312.377747,24.393562 
	C311.907074,23.729357 311.432983,22.721621 310.961548,21.373947 
z"/>
<path fill="#0541A6" opacity="1.000000" stroke="none" 
	d="
M236.279114,288.777222 
	C236.557434,288.599213 237.196136,288.488007 237.964203,288.544617 
	C237.608856,288.756287 237.124176,288.800171 236.279114,288.777222 
z"/>
<path fill="#0648B2" opacity="1.000000" stroke="none" 
	d="
M393.361664,246.258667 
	C393.621155,246.505814 393.907837,247.022522 394.214508,247.718918 
	C393.952637,247.441803 393.670746,246.985016 393.361664,246.258667 
z"/>
<path fill="#073F9B" opacity="1.000000" stroke="none" 
	d="
M296.788940,12.722469 
	C296.486450,12.473635 296.212036,11.931238 295.957092,11.199632 
	C296.256714,11.483251 296.536865,11.956079 296.788940,12.722469 
z"/>
<path fill="#0E3C8A" opacity="1.000000" stroke="none" 
	d="
M172.912628,37.237789 
	C173.286530,37.676296 173.657181,38.443581 174.059799,39.529675 
	C173.697632,39.087849 173.303497,38.327209 172.912628,37.237789 
z"/>
<path fill="#0E3C8A" opacity="1.000000" stroke="none" 
	d="
M180.718811,58.219284 
	C181.078644,58.726658 181.465057,59.599918 181.888260,60.828262 
	C181.531815,60.317284 181.138596,59.451225 180.718811,58.219284 
z"/>
<path fill="#061C49" opacity="1.000000" stroke="none" 
	d="
M305.878662,4.023990 
	C306.042816,4.498876 305.880188,4.917893 305.552917,5.627462 
	C305.214417,5.418284 305.040466,4.918554 304.881348,4.144009 
	C305.114746,3.902170 305.333313,3.935146 305.878662,4.023990 
z"/>
<path fill="#0E3C8A" opacity="1.000000" stroke="none" 
	d="
M184.724152,69.288078 
	C185.020920,69.572838 185.327560,70.235886 185.723236,71.256844 
	C185.452866,70.965294 185.093445,70.315826 184.724152,69.288078 
z"/>
<path fill="#0E3C8A" opacity="1.000000" stroke="none" 
	d="
M178.858841,53.401646 
	C179.114670,53.674850 179.383713,54.293381 179.711609,55.249557 
	C179.470993,54.973789 179.171524,54.360382 178.858841,53.401646 
z"/>
<path fill="#0E3C8A" opacity="1.000000" stroke="none" 
	d="
M168.841171,26.199417 
	C169.118149,26.484209 169.422348,27.136858 169.795776,28.145706 
	C169.532791,27.857029 169.200592,27.212151 168.841171,26.199417 
z"/>
<path fill="#0E3C8A" opacity="1.000000" stroke="none" 
	d="
M170.977081,32.275497 
	C171.234421,32.506668 171.475021,33.048306 171.765411,33.883739 
	C171.530273,33.647011 171.245300,33.116486 170.977081,32.275497 
z"/>
<path fill="#02398E" opacity="1.000000" stroke="none" 
	d="
M315.842712,34.499352 
	C316.018982,34.493687 316.293671,34.798790 316.752533,35.349915 
	C316.604858,35.333996 316.272980,35.072056 315.842712,34.499352 
z"/>
<path fill="#023A99" opacity="1.000000" stroke="none" 
	d="
M266.231781,288.211365 
	C266.384094,288.113586 266.557953,288.221466 266.810059,288.478271 
	C266.908569,288.594543 266.553833,288.601959 266.553833,288.601959 
	C266.553833,288.601959 266.273651,288.384369 266.231781,288.211365 
z"/>
<path fill="#06409D" opacity="1.000000" stroke="none" 
	d="
M123.532654,288.357910 
	C123.674545,288.238129 124.016396,288.321198 124.598984,288.507324 
	C124.470688,288.593842 124.101646,288.577271 123.532654,288.357910 
z"/>
<path fill="#02398E" opacity="1.000000" stroke="none" 
	d="
M501.390228,8.463358 
	C501.305328,8.311868 501.437134,7.932055 501.714355,7.289049 
	C501.775482,7.428915 501.691193,7.831975 501.390228,8.463358 
z"/>
<path fill="#0E3C8A" opacity="1.000000" stroke="none" 
	d="
M165.091522,16.276115 
	C165.267807,16.318056 165.465820,16.688740 165.759888,17.362574 
	C165.608383,17.312101 165.360825,16.958481 165.091522,16.276115 
z"/>
<path fill="#02398E" opacity="1.000000" stroke="none" 
	d="
M309.163635,16.377640 
	C309.327209,16.414078 309.507629,16.749136 309.778503,17.358578 
	C309.639465,17.314060 309.409943,16.995161 309.163635,16.377640 
z"/>
<path fill="#0E3C8A" opacity="1.000000" stroke="none" 
	d="
M171.857986,34.382545 
	C172.047241,34.401566 172.293655,34.756836 172.681152,35.406212 
	C172.519867,35.373146 172.217499,35.045971 171.857986,34.382545 
z"/>
<path fill="#0E3C8A" opacity="1.000000" stroke="none" 
	d="
M194.225266,95.271240 
	C194.386322,95.319595 194.563980,95.677193 194.810181,96.329491 
	C194.666458,96.276283 194.454163,95.928383 194.225266,95.271240 
z"/>
<path fill="#0E3C8A" opacity="1.000000" stroke="none" 
	d="
M175.893311,45.388405 
	C176.074539,45.402542 176.330307,45.742996 176.737488,46.365574 
	C176.581894,46.336704 176.274872,46.025711 175.893311,45.388405 
z"/>
<path fill="#0E3C8A" opacity="1.000000" stroke="none" 
	d="
M177.118851,48.276886 
	C177.288818,48.326908 177.469101,48.705051 177.730927,49.389648 
	C177.584702,49.332405 177.356934,48.968704 177.118851,48.276886 
z"/>
<path fill="#0E3C8A" opacity="1.000000" stroke="none" 
	d="
M179.927673,56.306984 
	C180.111679,56.335751 180.342651,56.703159 180.704010,57.370392 
	C180.547821,57.328686 180.261230,56.987152 179.927673,56.306984 
z"/>
<path fill="#0E3C8A" opacity="1.000000" stroke="none" 
	d="
M193.138092,92.269180 
	C193.309265,92.316284 193.494324,92.688164 193.763275,93.362991 
	C193.615417,93.308617 193.383698,92.951294 193.138092,92.269180 
z"/>
<path fill="#0648B2" opacity="1.000000" stroke="none" 
	d="
M379.916626,209.999512 
	C379.952087,209.982758 379.937592,210.017288 379.969696,210.024567 
	C380.001801,210.031860 379.881195,210.016281 379.916626,209.999512 
z"/>
<path fill="#0645A8" opacity="1.000000" stroke="none" 
	d="
M274.335785,12.937628 
	C273.698334,10.244315 273.393036,7.493076 273.039978,4.392488 
	C274.063232,3.977287 275.134186,3.911432 276.602173,3.924889 
	C277.263733,4.411242 277.556671,4.802849 277.787964,5.227991 
	C278.815460,7.116699 279.825348,9.015007 280.841583,10.909842 
	C278.783691,11.566463 276.725800,12.223083 274.335785,12.937628 
z"/>
<path fill="#0645A8" opacity="1.000000" stroke="none" 
	d="
M232.595795,3.767670 
	C231.743103,6.573076 230.251953,7.525098 228.117935,4.183749 
	C229.388840,3.815997 230.786499,3.743566 232.595795,3.767670 
z"/>
<path fill="#0645A8" opacity="1.000000" stroke="none" 
	d="
M243.594849,3.750077 
	C242.747208,6.566029 241.259415,7.533868 239.118561,4.172386 
	C240.389221,3.801776 241.786285,3.727486 243.594849,3.750077 
z"/>
<path fill="#0645A8" opacity="1.000000" stroke="none" 
	d="
M206.618622,3.729464 
	C205.582108,5.518771 204.156662,7.432842 202.093323,4.077919 
	C203.395996,3.747474 204.800735,3.688000 206.618622,3.729464 
z"/>
<path fill="#0645A8" opacity="1.000000" stroke="none" 
	d="
M185.612122,3.758912 
	C185.054535,6.004085 183.962051,7.296266 182.099823,4.174370 
	C183.062973,3.822109 184.138718,3.746160 185.612122,3.758912 
z"/>
<path fill="#0645A8" opacity="1.000000" stroke="none" 
	d="
M222.611969,3.766037 
	C222.037201,6.048289 220.925217,7.276681 219.101837,4.136231 
	C220.066086,3.795501 221.141037,3.734553 222.611969,3.766037 
z"/>
<path fill="#0645A8" opacity="1.000000" stroke="none" 
	d="
M266.673340,3.867200 
	C266.377960,4.064508 265.750488,4.191811 265.059265,4.117316 
	C265.444092,3.876077 265.892700,3.836636 266.673340,3.867200 
z"/>
<path fill="#0645A8" opacity="1.000000" stroke="none" 
	d="
M210.671661,3.750676 
	C210.376770,3.957880 209.748306,4.101099 209.056549,4.036314 
	C209.441528,3.781105 209.889801,3.733898 210.671661,3.750676 
z"/>
<path fill="#0645A8" opacity="1.000000" stroke="none" 
	d="
M250.672043,3.808616 
	C250.377106,4.011095 249.749512,4.146681 249.058441,4.077503 
	C249.443100,3.829067 249.891251,3.785395 250.672043,3.808616 
z"/>
<path fill="#02398E" opacity="1.000000" stroke="none" 
	d="
M458.595459,3.909900 
	C456.358948,4.373069 453.739960,4.973228 451.120514,4.975123 
	C411.229919,5.003972 371.339233,4.968209 331.448700,4.888151 
	C329.156006,4.883550 326.864319,4.369048 324.259766,3.932849 
	C326.094727,3.577140 328.242188,3.208836 330.389557,3.209135 
	C371.011536,3.214787 411.633545,3.257529 452.255493,3.323604 
	C454.241486,3.326834 456.227020,3.613779 458.595459,3.909900 
z"/>
<path fill="#0442A5" opacity="1.000000" stroke="none" 
	d="
M424.020966,200.590683 
	C421.712463,205.523956 419.134949,209.929779 417.201599,214.602173 
	C413.399048,223.791870 409.954407,233.129684 406.179565,242.708115 
	C403.731628,239.570786 401.465759,236.131561 398.998505,231.990753 
	C398.062775,229.255264 397.281769,227.236832 396.601471,225.185043 
	C391.056183,208.460175 385.529755,191.729065 379.958282,174.612549 
	C379.278931,171.483322 378.638855,168.741409 377.998779,165.999481 
	C379.357361,166.763824 381.265167,167.187256 381.985565,168.347763 
	C386.712585,175.962479 391.164093,183.747849 395.765778,191.441498 
	C396.253937,192.257736 397.568573,193.548721 397.764191,193.427963 
	C401.803375,190.934204 405.299500,194.798187 408.844849,194.266510 
	C410.668396,193.993042 412.077759,190.957504 414.333344,188.432236 
	C416.182678,188.790863 419.096252,188.733078 419.980957,184.634583 
	C420.125397,183.965530 422.223297,182.960419 422.603424,183.235748 
	C423.991272,184.240921 425.824707,185.610901 426.027710,187.049744 
	C426.358856,189.397079 425.587616,191.913925 425.194183,194.345123 
	C424.877472,196.302170 424.431671,198.238327 424.020966,200.590683 
z"/>
<path fill="#0543A8" opacity="1.000000" stroke="none" 
	d="
M377.827209,165.682739 
	C378.638855,168.741409 379.278931,171.483322 379.683655,174.425262 
	C377.300079,172.083740 375.151886,169.542206 373.003662,167.000687 
	C371.727753,161.913239 370.451874,156.825790 369.050232,151.004959 
	C367.950226,148.514450 366.976013,146.757309 366.001801,145.000168 
	C365.691162,142.928452 365.380524,140.856750 364.923828,138.087463 
	C363.852631,136.259995 362.927551,135.130112 362.002441,134.000214 
	C360.104797,127.554901 358.207153,121.109589 356.039307,114.077408 
	C355.512726,112.993599 355.256348,112.496651 355.000000,111.999695 
	C354.999756,111.250084 354.999542,110.500465 354.829102,109.147911 
	C354.106293,108.029778 353.553772,107.514595 353.001221,106.999405 
	C352.467865,106.466179 351.934540,105.932945 351.253235,104.960030 
	C350.737335,103.679955 350.369385,102.839569 350.001465,101.999191 
	C349.724670,100.245888 349.447876,98.492584 349.084137,96.173683 
	C348.664795,95.072128 348.332397,94.536186 348.000000,94.000244 
	C347.743805,93.503372 347.487640,93.006500 347.197266,91.971634 
	C346.775391,89.955460 346.387695,88.477272 346.000000,86.999084 
	C345.999908,86.555229 345.999817,86.111382 345.896027,85.005234 
	C344.529053,82.561607 343.265747,80.780266 342.002441,78.998932 
	C342.002014,78.249245 342.001556,77.499565 342.000977,76.375046 
	C342.015350,74.855270 342.395386,73.555687 341.986725,72.589806 
	C338.656250,64.718262 339.619080,57.652042 345.792145,51.199112 
	C349.618347,66.106575 353.132141,81.237976 356.895660,96.307022 
	C359.425629,106.436951 362.060516,116.554138 365.095825,126.541046 
	C369.050629,139.553146 373.448425,152.430603 377.827209,165.682739 
z"/>
<path fill="#0442A5" opacity="1.000000" stroke="none" 
	d="
M423.377869,176.166458 
	C423.859192,176.228577 424.234650,176.401123 424.610107,176.573669 
	C424.410980,176.792007 424.211823,177.010345 424.012665,177.228683 
	C423.765778,176.911423 423.518890,176.594162 423.377869,176.166458 
z"/>
<path fill="#0444AA" opacity="1.000000" stroke="none" 
	d="
M352.051270,32.180016 
	C352.563507,32.136578 353.127014,32.273163 353.690491,32.409748 
	C353.365356,32.719654 353.040192,33.029560 352.715057,33.339466 
	C352.510895,33.012989 352.306732,32.686516 352.051270,32.180016 
z"/>
<path fill="#0442A5" opacity="1.000000" stroke="none" 
	d="
M427.011047,180.962616 
	C427.032074,180.965317 426.990021,180.959915 427.011047,180.962616 
z"/>
<path fill="#0645A8" opacity="1.000000" stroke="none" 
	d="
M271.081085,264.624146 
	C269.871674,263.595551 268.306458,262.362885 267.698517,260.765839 
	C261.903168,245.541534 256.317627,230.237564 250.575531,214.992737 
	C245.779236,202.258865 240.773422,189.603668 236.010406,176.857559 
	C231.763321,165.492142 227.786972,154.025742 223.571869,142.648087 
	C218.954285,130.184021 214.051483,117.824188 209.541306,105.322128 
	C203.345139,88.146553 197.476379,70.853088 191.322052,53.662148 
	C187.399384,42.704948 183.128998,31.872217 179.208588,20.914244 
	C178.286072,18.335760 176.008575,15.272453 179.745789,12.915601 
	C183.226837,10.720299 187.487259,11.330463 189.367126,14.024242 
	C193.442612,19.864229 198.003860,16.767614 202.635239,16.180197 
	C206.767731,15.656055 210.937759,15.416949 215.095245,15.105873 
	C216.913681,14.969812 218.883011,15.389380 220.542694,14.834908 
	C229.693542,11.777753 238.777710,14.403330 247.911469,14.655820 
	C254.990585,14.851510 262.106293,13.723540 269.602386,13.096979 
	C270.966217,16.180202 271.011902,20.229881 273.056305,22.371979 
	C283.178253,32.977654 288.622559,45.301323 289.158875,59.933834 
	C289.240906,62.171597 290.378296,64.367493 291.004730,66.589203 
	C292.103333,70.485718 293.106476,74.411415 294.308441,78.275475 
	C294.836884,79.974251 295.490021,81.751007 296.541748,83.150200 
	C301.319183,89.505997 304.178162,96.589912 306.261536,104.265167 
	C308.015808,110.727905 311.433533,116.718971 313.655457,123.079330 
	C317.594269,134.354340 321.166107,145.757217 324.928131,157.094421 
	C326.912109,163.073227 329.022095,169.010391 330.984253,174.996185 
	C332.533234,179.721512 333.908844,184.503433 335.428497,189.238708 
	C336.289185,191.920670 337.311279,194.550369 338.215118,197.219009 
	C340.979675,205.381531 343.919830,213.492218 346.394379,221.742233 
	C347.737732,226.220825 349.238617,230.994919 348.986389,235.542450 
	C348.335388,247.280136 341.371582,254.583755 328.666016,252.168869 
	C326.465057,251.750519 324.042328,252.499191 320.653717,252.805298 
	C318.737640,250.873871 315.755859,248.567108 313.757355,252.306656 
	C307.216766,253.437347 301.828186,254.548965 296.386841,255.251541 
	C292.169525,255.796066 287.853394,256.284088 283.640106,255.980118 
	C277.736328,255.554184 272.440430,258.712982 271.081085,264.624146 
z"/>
<path fill="#0745A7" opacity="1.000000" stroke="none" 
	d="
M211.011597,236.664398 
	C209.310913,237.434433 207.610092,237.871658 205.660797,238.372772 
	C206.021210,239.395767 206.093399,240.092514 206.458359,240.561279 
	C210.593491,245.872467 209.937958,247.763092 203.577911,249.624298 
	C202.412338,249.965393 201.301407,251.232559 200.636002,252.352051 
	C199.846497,253.680328 199.566299,255.311325 198.909515,257.277832 
	C197.148819,256.154022 195.969513,255.401306 195.700058,255.229324 
	C188.058807,256.302704 181.241562,257.384033 174.389618,258.158203 
	C171.864456,258.443512 169.243103,257.793213 166.692642,257.966858 
	C164.866058,258.091248 163.074432,258.842712 161.284897,259.374023 
	C157.479645,260.503815 153.747696,261.988098 149.872101,262.746399 
	C144.870789,263.724945 139.758377,264.135498 134.346283,264.895935 
	C132.990997,261.846222 131.571091,258.746002 131.141235,255.514130 
	C130.910095,253.776428 132.083511,251.611771 133.173706,250.015839 
	C134.017029,248.781311 135.715942,248.131256 137.034500,247.221359 
	C136.866455,246.788956 136.698410,246.356552 136.530365,245.924149 
	C134.866013,246.482605 133.208466,247.062500 131.535828,247.594925 
	C128.413193,248.588928 126.337608,248.014175 126.031174,244.216400 
	C125.659096,239.605042 125.233482,234.985703 124.499641,230.423111 
	C124.269859,228.994507 123.089203,227.643295 122.131371,226.423447 
	C120.268364,224.050781 117.804985,222.036514 116.414650,219.433487 
	C114.552582,215.947266 112.871475,212.141907 112.237770,208.288544 
	C111.675354,204.868698 113.706253,200.831100 112.639038,197.740768 
	C111.627625,194.812042 107.264717,193.168762 105.796265,190.246368 
	C100.963379,180.628387 96.602753,170.759140 92.420639,160.834732 
	C90.655716,156.646469 89.554924,152.131714 88.566208,147.673553 
	C86.936615,140.325668 85.660233,132.995682 81.422050,126.416420 
	C79.918358,124.082108 79.830856,120.375534 80.183479,117.425301 
	C80.596878,113.966499 79.963455,111.750961 76.919571,109.914619 
	C73.032135,107.569382 71.547829,103.098228 73.978767,99.184784 
	C76.984818,94.345520 75.607307,93.010788 70.572556,93.215508 
	C70.139069,93.233131 69.688904,92.840256 70.576820,93.246033 
	C69.219414,83.256264 67.983536,74.149010 66.737984,65.043076 
	C66.693810,64.720116 66.655251,64.283104 66.442963,64.113731 
	C63.981049,62.149578 60.846684,60.453537 63.783138,56.588417 
	C65.567245,54.240086 67.361519,51.899422 69.132126,49.540974 
	C69.314522,49.298023 69.366165,48.956909 69.794533,47.829586 
	C66.220772,48.773506 63.129745,49.589928 58.550964,50.799301 
	C58.914818,47.883553 58.870514,45.454327 59.571728,43.263744 
	C60.657360,39.872257 62.251919,36.643677 63.630676,33.346016 
	C63.197433,33.031452 62.764191,32.716885 62.330944,32.402321 
	C63.394833,32.224945 64.454330,32.013145 65.523476,31.877005 
	C68.157043,31.541656 71.139481,31.917732 73.360336,30.787212 
	C78.147415,28.350353 82.038673,25.939196 87.258965,30.822729 
	C88.833199,32.295414 94.033607,29.882687 97.575653,29.265291 
	C99.112572,28.997398 101.405243,27.997021 102.075462,28.647442 
	C106.431114,32.874485 111.432823,31.466908 116.250191,30.567682 
	C119.223488,30.012680 121.334015,30.401442 123.270950,32.803696 
	C125.491508,35.557724 127.605621,36.209644 130.585602,33.012779 
	C134.573196,28.734980 142.071915,31.397486 143.662430,36.969303 
	C144.178345,38.776638 146.080429,40.188286 147.671783,41.889507 
	C149.029266,49.332779 149.596268,56.776672 151.275421,63.960617 
	C152.259918,68.172539 155.015503,71.970604 156.975174,75.954445 
	C157.775681,77.581802 159.025543,79.138680 159.291138,80.848732 
	C159.936584,85.004387 160.996017,88.546303 165.513428,90.146309 
	C166.553162,90.514565 167.449631,92.022827 167.903580,93.202171 
	C179.914673,124.407578 191.865768,155.636108 203.792236,186.873993 
	C204.322418,188.262619 204.524811,189.776398 205.036346,191.941925 
	C206.127945,194.100250 207.063080,195.548523 207.998199,196.996811 
	C208.596252,199.100677 209.194290,201.204544 209.839600,203.950409 
	C210.590515,206.393417 211.294144,208.194458 211.997772,209.995483 
	C212.294403,212.073486 212.591034,214.151474 212.738174,216.890274 
	C211.524933,219.427078 210.115021,221.192047 209.470093,223.202423 
	C208.160858,227.283493 206.452209,231.608200 211.009888,235.000183 
	C211.010406,235.443985 211.010925,235.887772 211.011597,236.664398 
z"/>
<path fill="#0541A6" opacity="1.000000" stroke="none" 
	d="
M211.315079,234.941818 
	C206.452209,231.608200 208.160858,227.283493 209.470093,223.202423 
	C210.115021,221.192047 211.524933,219.427078 212.795990,217.277924 
	C213.978409,221.854599 215.045044,226.688416 215.898071,231.559631 
	C216.518112,235.100327 213.435684,234.264587 211.315079,234.941818 
z"/>
<path fill="#0541A6" opacity="1.000000" stroke="none" 
	d="
M211.941132,209.641129 
	C211.294144,208.194458 210.590515,206.393417 209.944809,204.297592 
	C210.629974,205.764114 211.257233,207.525452 211.941132,209.641129 
z"/>
<path fill="#0541A6" opacity="1.000000" stroke="none" 
	d="
M207.905228,196.670868 
	C207.063080,195.548523 206.127945,194.100250 205.099915,192.325989 
	C205.942108,193.448334 206.877182,194.896622 207.905228,196.670868 
z"/>
<path fill="#0745A6" opacity="1.000000" stroke="none" 
	d="
M377.405640,29.411617 
	C376.722809,28.943861 376.242950,28.456406 375.763092,27.968950 
	C376.342896,27.862919 376.922729,27.756887 377.502533,27.650856 
	C377.537903,28.231211 377.573273,28.811563 377.405640,29.411617 
z"/>
<path fill="#0442A9" opacity="1.000000" stroke="none" 
	d="
M373.072510,167.371994 
	C375.151886,169.542206 377.300079,172.083740 379.722961,174.812561 
	C385.529755,191.729065 391.056183,208.460175 396.601471,225.185043 
	C397.281769,227.236832 398.062775,229.255264 398.890442,231.648224 
	C397.596802,232.004929 396.209808,232.002548 394.405762,231.999481 
	C391.121735,223.868927 388.254791,215.739090 385.192596,207.305725 
	C381.045380,193.915909 377.093384,180.829605 373.072510,167.371994 
z"/>
<path fill="#0442A9" opacity="1.000000" stroke="none" 
	d="
M366.039307,145.364395 
	C366.976013,146.757309 367.950226,148.514450 368.962219,150.635803 
	C368.025604,149.242905 367.051208,147.485764 366.039307,145.364395 
z"/>
<path fill="#0444AA" opacity="1.000000" stroke="none" 
	d="
M342.077759,79.339584 
	C343.265747,80.780266 344.529053,82.561607 345.895996,84.672356 
	C344.717468,83.227921 343.435272,81.454086 342.077759,79.339584 
z"/>
<path fill="#0444AA" opacity="1.000000" stroke="none" 
	d="
M345.949432,87.274826 
	C346.387695,88.477272 346.775391,89.955460 347.081909,91.716942 
	C346.633484,90.517014 346.266174,89.033791 345.949432,87.274826 
z"/>
<path fill="#0442A9" opacity="1.000000" stroke="none" 
	d="
M362.113190,134.305328 
	C362.927551,135.130112 363.852631,136.259995 364.888885,137.694946 
	C364.074646,136.870132 363.149292,135.740280 362.113190,134.305328 
z"/>
<path fill="#0444AA" opacity="1.000000" stroke="none" 
	d="
M350.090271,102.302856 
	C350.369385,102.839569 350.737335,103.679955 351.053375,104.759926 
	C350.727325,104.201843 350.453217,103.404182 350.090271,102.302856 
z"/>
<path fill="#0444AA" opacity="1.000000" stroke="none" 
	d="
M353.171326,107.227577 
	C353.553772,107.514595 354.106293,108.029778 354.829071,108.773102 
	C354.446686,108.486076 353.894073,107.970917 353.171326,107.227577 
z"/>
<path fill="#0442A9" opacity="1.000000" stroke="none" 
	d="
M355.001587,112.195831 
	C355.256348,112.496651 355.512726,112.993599 355.884552,113.745270 
	C355.667725,113.463982 355.335419,112.927971 355.001587,112.195831 
z"/>
<path fill="#0444AA" opacity="1.000000" stroke="none" 
	d="
M348.115448,94.254959 
	C348.332397,94.536186 348.664795,95.072128 348.998779,95.804230 
	C348.743927,95.503479 348.487427,95.006577 348.115448,94.254959 
z"/>
<path fill="#0442A9" opacity="1.000000" stroke="none" 
	d="
M389.037476,229.012024 
	C389.034760,229.034180 389.040161,228.989868 389.037476,229.012024 
z"/>
<path fill="#0442A9" opacity="1.000000" stroke="none" 
	d="
M384.010376,216.038116 
	C383.992462,216.051834 384.028259,216.024384 384.010376,216.038116 
z"/>
</svg>